<svg version="1.1" id="Layer_1" xmlns="http://www.w3.org/2000/svg" xmlns:xlink="http://www.w3.org/1999/xlink" x="0px" y="0px"
	 width="100%" viewBox="0 0 1024 1024" enable-background="new 0 0 1024 1024" xml:space="preserve">
<path fill="#070A12" opacity="1.000000" stroke="none" 
	d="
M700.000000,1025.000000 
	C466.666656,1025.000000 233.833328,1025.000000 1.000000,1025.000000 
	C1.000000,683.666687 1.000000,342.333344 1.000000,1.000000 
	C342.333344,1.000000 683.666687,1.000000 1025.000000,1.000000 
	C1025.000000,342.333344 1025.000000,683.666687 1025.000000,1025.000000 
	C916.833313,1025.000000 808.666687,1025.000000 700.000000,1025.000000 
M494.930054,611.678894 
	C495.228180,611.895142 495.526276,612.111450 495.841705,612.174744 
	C495.841705,612.174744 495.688751,612.192200 495.906250,612.705444 
	C496.203583,612.918030 496.500916,613.130615 496.827271,613.155945 
	C496.827271,613.155945 496.637817,613.161133 496.914490,613.752808 
	C497.251801,614.024292 497.589111,614.295776 498.167419,615.139893 
	C500.192505,617.245483 502.217590,619.351013 504.552063,621.918579 
	C505.866608,623.238342 507.181122,624.558044 508.962463,626.426941 
	C511.258759,628.473328 513.555054,630.519775 515.917969,633.449097 
	C516.416260,633.686279 516.914551,633.923462 517.116760,634.784912 
	C520.487610,638.330261 523.858459,641.875610 527.530640,645.918823 
	C529.186035,647.579163 530.841431,649.239441 532.973022,651.448547 
	C556.846924,676.327393 580.788818,701.141907 604.496887,726.177795 
	C607.062988,728.887695 609.453613,729.746948 612.953430,729.740662 
	C660.928711,729.654114 708.904236,729.686096 756.879700,729.671021 
	C757.938721,729.670715 758.997559,729.459900 761.645203,729.178223 
	C722.442505,689.021606 684.149963,649.797363 645.532410,610.072693 
	C643.883057,608.632385 642.233765,607.192078 640.488037,605.046875 
	C638.332275,602.822815 636.254211,600.513611 633.971680,598.428345 
	C633.318481,597.831665 632.073059,597.883118 631.076965,597.810364 
	C631.076965,597.810364 631.251282,597.805359 631.526428,597.036865 
	C631.076660,596.941467 630.626831,596.846069 630.156982,596.839355 
	C630.156982,596.839355 630.247070,596.826294 630.536133,596.034668 
	C630.072388,595.942444 629.608643,595.850281 629.136230,595.958679 
	C629.136230,595.958679 629.336792,595.948853 630.131226,595.529480 
	C629.147522,594.494873 628.163757,593.460266 627.223022,591.668518 
	C626.851257,591.342163 626.479553,591.015808 626.108459,590.868164 
	C626.108459,590.868164 626.285278,590.842285 626.060669,590.327271 
	C625.759521,590.114868 625.458374,589.902466 625.136536,589.871582 
	C625.136536,589.871582 625.319153,589.864502 625.066895,589.307861 
	C624.748047,589.062256 624.429199,588.816650 623.857300,587.982544 
	C617.857483,581.840759 611.857666,575.699036 605.518921,569.056702 
	C604.118164,567.871155 602.717468,566.685608 601.401367,565.007263 
	C601.118774,564.916321 600.836182,564.825378 600.382507,563.951904 
	C599.048279,562.496094 597.713989,561.040344 597.049500,560.315369 
	C608.006775,552.333374 618.821350,544.455383 630.188721,536.213196 
	C632.838074,533.499084 635.487427,530.784973 638.725830,527.768005 
	C689.040283,473.024567 690.010254,391.270264 640.928040,335.755524 
	C639.747192,334.419952 637.746887,333.808929 635.883850,332.265289 
	C634.567871,330.883026 633.251892,329.500793 632.088196,327.399872 
	C623.725525,320.932739 615.362854,314.465576 606.501099,307.523193 
	C604.490601,306.433167 602.480164,305.343109 599.801025,303.833954 
	C598.842896,303.411407 597.884827,302.988861 596.911316,302.645599 
	C596.911316,302.645599 596.951721,302.499298 596.475891,302.065216 
	C595.875671,301.837646 595.275513,301.610107 594.072205,300.987946 
	C591.869446,300.078339 589.666626,299.168732 586.882324,297.938690 
	C586.051758,297.662445 585.221252,297.386200 583.819275,296.781769 
	C582.989136,296.538025 582.158997,296.294250 580.766663,295.734985 
	C579.952881,295.505676 579.139038,295.276367 578.024658,294.814880 
	C577.553650,294.675690 577.082581,294.536530 575.832886,294.032410 
	C572.256348,293.151764 568.679871,292.271088 564.232910,291.039551 
	C554.660706,290.159119 545.090088,288.535614 535.515991,288.514069 
	C447.627625,288.316376 359.738647,288.396454 271.849854,288.395569 
	C269.596497,288.395569 267.343140,288.395569 265.089783,288.395569 
	C264.844635,288.882751 264.599457,289.369934 264.354309,289.857117 
	C266.134155,291.180878 267.914001,292.504608 269.388641,294.462616 
	C276.764038,302.234589 284.139435,310.006592 292.007721,318.347595 
	C315.299683,342.250885 338.591644,366.154175 362.210693,390.765900 
	C363.877472,391.420654 365.541779,392.640961 367.211365,392.648132 
	C418.520325,392.868958 469.830078,392.924133 521.139038,393.152710 
	C527.261963,393.179993 533.577271,393.246399 539.465393,394.681488 
	C557.413208,399.055695 569.618713,416.407471 568.881897,435.447449 
	C568.172180,453.786743 554.691772,469.978973 536.662231,472.897675 
	C528.180786,474.270660 519.417480,474.248566 510.780945,474.262695 
	C447.470337,474.366119 384.159332,474.361267 320.848846,474.224335 
	C316.536438,474.214996 315.207977,475.192505 315.215027,479.713593 
	C315.354004,569.181519 315.314972,658.649780 315.345367,748.117920 
	C315.345978,749.843018 315.747833,751.567993 316.042694,753.937744 
	C324.595551,749.786743 332.499268,745.983765 340.374359,742.122559 
	C364.059662,730.509460 387.733826,718.873596 412.090912,707.111511 
	C416.572784,704.955811 420.946747,702.522156 425.568848,700.727661 
	C429.655426,699.141113 430.701202,696.568420 430.686371,692.382324 
	C430.544708,652.463135 430.911255,612.539001 430.356232,572.627075 
	C430.236694,564.029724 433.413513,558.724670 439.694122,554.299255 
	C451.138794,566.081055 462.484009,577.760437 474.075409,590.034485 
	C477.754242,593.860657 481.433075,597.686890 485.135529,601.721741 
	C485.135529,601.721741 485.489868,601.900330 485.952118,602.444397 
	C488.245453,604.482910 490.538757,606.521484 492.792297,609.317017 
	C493.162170,609.644470 493.532074,609.971863 493.899323,610.121155 
	C493.899323,610.121155 493.723022,610.146973 493.948364,610.662659 
	C494.249298,610.876404 494.550232,611.090088 494.864777,611.147156 
	C494.864777,611.147156 494.708344,611.163025 494.930054,611.678894 
z"/>
<path fill="#8D56FE" opacity="1.000000" stroke="none" 
	d="
M631.935913,328.118561 
	C633.251892,329.500793 634.567871,330.883026 636.002258,332.906555 
	C639.788208,338.018677 643.455688,342.489563 646.768311,347.014038 
	C643.399170,349.100311 640.140503,350.857117 637.443909,353.247894 
	C635.041504,355.377747 631.897705,358.004425 631.482117,360.772369 
	C630.538147,367.059540 631.088196,373.568665 630.999756,379.987122 
	C630.673340,403.677521 630.350891,427.368011 629.988281,451.057892 
	C629.897461,456.986877 629.662354,462.913666 629.492615,468.841461 
	C628.995850,486.184998 628.266174,503.527679 628.201477,520.872803 
	C628.188843,524.262329 630.754761,527.661560 631.982239,531.327881 
	C630.917175,532.421204 630.001343,533.242798 628.787720,533.894775 
	C620.284973,525.275085 611.614380,517.214417 604.081421,508.202728 
	C600.581543,504.015900 597.628235,498.076477 597.323669,492.765411 
	C596.517822,478.711792 597.145081,464.564026 597.479370,450.460297 
	C597.809937,436.512238 598.464478,422.571655 599.006775,408.628937 
	C599.294250,401.236298 599.847900,393.847778 599.908569,386.454315 
	C599.965759,379.487671 600.078979,372.438629 599.093140,365.580261 
	C598.579590,362.008148 598.937378,359.710175 601.233643,357.065735 
	C602.541565,355.559509 603.482422,353.071655 603.337097,351.118927 
	C603.108398,348.046051 601.824280,345.051697 601.299316,341.872803 
	C610.737854,336.804443 619.864014,331.887390 629.280884,327.113007 
	C630.359619,327.543304 631.147766,327.830933 631.935913,328.118561 
z"/>
<path fill="#609CFD" opacity="1.000000" stroke="none" 
	d="
M291.514832,317.778564 
	C284.139435,310.006592 276.764038,302.234589 269.660889,293.872803 
	C269.525024,292.635620 269.116913,291.988251 269.091492,291.214661 
	C310.982056,291.108490 352.489929,291.128540 393.999023,291.605225 
	C393.726776,299.430115 393.087402,306.858826 399.996887,312.161407 
	C401.036713,312.959381 401.356659,314.695374 401.653870,316.047119 
	C397.532867,318.396637 393.767639,320.696472 389.583618,322.980011 
	C379.564972,320.166809 369.812714,321.666779 360.249390,322.636322 
	C343.973602,324.286407 327.789734,326.858765 311.585632,329.172211 
	C310.232452,329.365387 309.018280,330.532288 307.456299,331.072418 
	C303.213409,326.864899 299.328033,322.753510 295.232178,318.863770 
	C294.400055,318.073517 292.774567,318.118561 291.514832,317.778564 
z"/>
<path fill="#645BEB" opacity="1.000000" stroke="none" 
	d="
M532.496826,650.899780 
	C530.841431,649.239441 529.186035,647.579163 527.711670,645.315308 
	C527.600403,643.828613 527.308167,642.945435 527.342896,641.899048 
	C540.779846,637.488892 553.889893,633.242004 567.421875,628.999939 
	C573.565735,628.669861 579.287781,628.334961 585.424561,628.018677 
	C590.041504,628.785889 594.239319,629.559753 598.447632,630.272034 
	C600.429138,630.607422 602.704102,631.581360 604.380188,630.975952 
	C618.666321,625.816040 632.845215,620.359619 647.283325,615.026367 
	C647.510437,615.060852 647.969910,615.075256 647.985718,615.046631 
	C648.001526,615.018066 647.937195,615.029663 648.001099,615.291382 
	C648.366638,615.722290 648.668335,615.891541 648.986206,616.035278 
	C649.002380,616.009766 648.943359,616.022583 649.011108,616.306213 
	C649.367065,616.848022 649.655334,617.106262 650.103699,617.641724 
	C656.573425,624.573364 662.882996,631.227661 668.834473,638.048584 
	C664.647888,639.162231 660.860291,640.348328 656.983093,641.009705 
	C647.203064,642.678040 637.539612,644.612549 629.194763,650.423706 
	C626.708252,652.155273 624.391907,654.131165 621.558594,655.996216 
	C615.851013,655.665283 610.429443,654.408875 605.354675,655.248474 
	C599.730225,656.179077 595.462036,654.604675 591.251038,651.602478 
	C589.245300,650.172607 587.518921,648.318787 585.426086,647.053894 
	C583.855408,646.104553 581.851746,645.158936 580.127258,645.296265 
	C571.176025,646.009277 562.233765,646.923706 553.325989,648.062378 
	C547.466125,648.811523 541.669922,650.058716 535.424927,650.850098 
	C534.168701,650.711487 533.332764,650.805603 532.496826,650.899780 
z"/>
<path fill="#4E70FD" opacity="1.000000" stroke="none" 
	d="
M567.000000,628.995117 
	C553.889893,633.242004 540.779846,637.488892 527.046387,641.728760 
	C522.262268,637.196960 518.101624,632.672058 514.121155,627.821594 
	C515.202393,625.671387 516.160522,623.872070 516.988770,622.014954 
	C517.845642,620.093628 518.116211,617.695129 519.446655,616.239929 
	C523.906677,611.361572 528.611328,606.689758 533.433594,602.163879 
	C540.549866,595.485046 547.903381,589.059570 555.051941,582.414368 
	C561.979675,575.974365 568.668396,569.274231 575.675049,562.923218 
	C579.283203,559.652649 583.354797,556.893311 587.499146,554.066772 
	C590.795227,557.266907 593.726990,560.392883 596.874817,563.283447 
	C597.781067,564.115601 599.310120,564.269470 600.553589,564.734375 
	C600.836182,564.825378 601.118774,564.916321 601.299744,565.623352 
	C600.537354,568.254150 600.425903,570.784302 599.111267,572.185547 
	C595.386536,576.155640 591.166138,579.660339 587.146912,583.354858 
	C577.524841,592.199707 567.812805,600.950073 558.344238,609.956421 
	C555.575989,612.589417 553.504883,615.955444 550.831543,619.343811 
	C554.874634,621.023926 558.370422,622.118835 561.478882,623.892517 
	C563.599365,625.102478 565.178711,627.260803 567.000000,628.995117 
z"/>
<path fill="#D2D2D4" opacity="1.000000" stroke="none" 
	d="
M411.412323,707.246643 
	C387.733826,718.873596 364.059662,730.509460 340.374359,742.122559 
	C332.499268,745.983765 324.595551,749.786743 316.042694,753.937744 
	C315.747833,751.567993 315.345978,749.843018 315.345367,748.117920 
	C315.314972,658.649780 315.354004,569.181519 315.215027,479.713593 
	C315.207977,475.192505 316.536438,474.214996 320.848846,474.224335 
	C384.159332,474.361267 447.470337,474.366119 510.780945,474.262695 
	C519.417480,474.248566 528.180786,474.270660 536.662231,472.897675 
	C554.691772,469.978973 568.172180,453.786743 568.881897,435.447449 
	C569.618713,416.407471 557.413208,399.055695 539.465393,394.681488 
	C533.577271,393.246399 527.261963,393.179993 521.139038,393.152710 
	C469.830078,392.924133 418.520325,392.868958 367.211365,392.648132 
	C365.541779,392.640961 363.877472,391.420654 362.298584,390.273590 
	C362.621674,389.485199 362.856873,389.189117 363.427826,389.085632 
	C365.413544,389.823730 367.068817,390.853851 368.712646,390.835938 
	C379.132996,390.722473 389.550812,390.377228 400.263306,390.409302 
	C406.036102,390.728485 411.515045,390.746796 417.460144,390.818604 
	C429.283417,390.833282 440.640533,390.794434 452.463501,390.809448 
	C463.611420,390.857025 474.293579,390.850800 485.441406,390.913818 
	C499.932953,390.908783 513.958801,390.834534 528.441650,390.811829 
	C544.167542,390.691681 555.289368,398.124146 564.137390,410.312286 
	C571.218628,421.412567 572.403625,433.038544 569.294983,445.271088 
	C566.773804,455.191833 560.657776,462.628937 552.530396,468.990540 
	C550.776001,469.820923 549.349182,470.545685 547.601685,471.367676 
	C543.852539,472.726868 540.424133,473.988831 536.596680,475.234253 
	C533.437439,475.560455 530.677307,475.903229 527.541443,476.398926 
	C523.649292,476.854034 520.132751,477.156189 515.834412,477.525513 
	C524.695496,486.612640 533.134827,495.172668 541.427124,503.872803 
	C542.675476,505.182465 543.237000,507.146729 543.774780,508.834778 
	C534.301331,499.556580 525.169434,490.251770 515.910767,480.664246 
	C514.526917,480.745087 512.904419,480.728638 512.069275,481.531342 
	C504.322449,488.977570 496.711304,496.564972 488.925537,503.861877 
	C488.492157,503.386261 488.193939,503.160126 488.064178,502.645874 
	C496.479279,493.940247 504.725891,485.522766 512.725037,476.765533 
	C511.654297,476.337402 510.831055,476.171783 510.007782,476.171600 
	C447.245636,476.158966 384.483521,476.154785 321.721405,476.191498 
	C320.469543,476.192230 319.217957,476.683777 317.676514,477.251160 
	C317.310638,478.715942 317.167969,479.875916 317.167816,481.035919 
	C317.157440,569.195435 317.153259,657.354919 317.198914,745.514404 
	C317.199707,747.062500 317.810150,748.610291 318.495148,750.123535 
	C324.983490,747.175842 331.129761,744.298035 337.239075,741.343689 
	C361.505249,729.609253 385.759857,717.850952 410.196472,706.350952 
	C410.720215,706.815857 411.066254,707.031250 411.412323,707.246643 
z"/>
<path fill="#4A79FD" opacity="1.000000" stroke="none" 
	d="
M587.217041,553.903015 
	C583.354797,556.893311 579.283203,559.652649 575.675049,562.923218 
	C568.668396,569.274231 561.979675,575.974365 555.051941,582.414368 
	C547.903381,589.059570 540.549866,595.485046 533.433594,602.163879 
	C528.611328,606.689758 523.906677,611.361572 519.446655,616.239929 
	C518.116211,617.695129 517.845642,620.093628 516.988770,622.014954 
	C516.160522,623.872070 515.202393,625.671387 513.779785,627.610718 
	C511.670685,627.109558 510.083191,626.493652 508.495667,625.877808 
	C507.181122,624.558044 505.866608,623.238342 504.717346,621.349976 
	C502.492401,617.575012 500.102203,614.368713 498.026001,610.998901 
	C512.931885,597.351440 527.524902,583.868530 542.115356,570.382874 
	C552.888062,560.425903 563.657410,550.465393 574.714355,540.707153 
	C577.966309,543.963318 580.932129,547.018738 584.094971,550.322510 
	C585.267029,551.681519 586.242004,552.792297 587.217041,553.903015 
z"/>
<path fill="#596CFD" opacity="1.000000" stroke="none" 
	d="
M567.421875,628.999939 
	C565.178711,627.260803 563.599365,625.102478 561.478882,623.892517 
	C558.370422,622.118835 554.874634,621.023926 550.831543,619.343811 
	C553.504883,615.955444 555.575989,612.589417 558.344238,609.956421 
	C567.812805,600.950073 577.524841,592.199707 587.146912,583.354858 
	C591.166138,579.660339 595.386536,576.155640 599.111267,572.185547 
	C600.425903,570.784302 600.537354,568.254150 601.257446,565.869751 
	C602.717468,566.685608 604.118164,567.871155 605.619080,569.502930 
	C605.719238,569.949219 605.840454,570.345581 605.488342,570.384705 
	C605.406860,570.971680 605.677490,571.519531 605.973511,572.044922 
	C605.998779,572.022400 605.931091,572.022644 606.010376,572.277405 
	C606.385437,572.710144 606.681274,572.888184 606.984863,573.035278 
	C606.992676,573.004395 606.932129,573.024353 607.008057,573.280640 
	C607.381042,573.712830 607.678101,573.888794 607.984497,574.034485 
	C607.993896,574.004150 607.934265,574.026062 608.007874,574.282959 
	C608.378906,574.714355 608.676270,574.888794 608.983826,575.033386 
	C608.993958,575.003479 608.935547,575.027466 609.006714,575.285278 
	C609.376038,575.716187 609.674133,575.889221 609.986755,576.035400 
	C610.001282,576.008545 609.941406,576.021118 610.016724,576.298096 
	C610.378296,576.826111 610.664612,577.077087 611.111694,577.606445 
	C614.625183,581.539429 617.977966,585.193909 621.008179,589.006348 
	C612.607483,596.459351 604.110229,603.353516 596.605286,611.197144 
	C591.960266,616.051941 588.823547,622.349915 585.009766,628.000000 
	C579.287781,628.334961 573.565735,628.669861 567.421875,628.999939 
z"/>
<path fill="#407EFD" opacity="1.000000" stroke="none" 
	d="
M574.428284,540.506409 
	C563.657410,550.465393 552.888062,560.425903 542.115356,570.382874 
	C527.524902,583.868530 512.931885,597.351440 497.750977,610.822815 
	C494.597626,608.196655 492.147339,605.453491 489.405365,603.041931 
	C488.480774,602.228699 486.816223,602.256775 485.489868,601.900330 
	C485.489868,601.900330 485.135529,601.721741 485.521851,601.302246 
	C485.852478,600.220215 485.796814,599.557556 486.028503,598.821716 
	C488.294861,597.247253 490.575745,596.016296 492.202179,594.199402 
	C500.624908,584.790649 511.281952,577.858032 519.662964,568.251404 
	C528.135986,558.539429 538.342041,550.321167 547.944885,541.620728 
	C552.817505,537.206055 558.033630,533.170410 563.460083,529.112915 
	C564.227478,529.166443 564.629211,529.070557 565.013367,528.987305 
	C564.995850,529.000000 565.006836,528.958130 564.860718,529.335999 
	C565.157166,529.807556 565.599670,529.901245 566.018311,530.000244 
	C565.994385,530.005554 566.005066,529.957764 565.858337,530.336731 
	C566.155334,530.809998 566.598999,530.904297 567.017700,531.002930 
	C566.992737,531.007202 567.001282,530.957214 566.854370,531.339783 
	C567.152466,531.813965 567.597473,531.905579 568.017944,532.001831 
	C567.993408,532.006531 568.002625,531.957397 567.848389,532.341125 
	C568.143616,532.815796 568.593079,532.906738 569.017944,533.002197 
	C568.993225,533.006775 569.002197,532.957336 568.845703,533.342285 
	C569.140381,533.817810 569.591553,533.908386 570.017700,534.003174 
	C569.992615,534.007324 570.000916,533.957153 569.841919,534.342896 
	C570.136414,534.820190 570.589905,534.911804 571.016724,535.006592 
	C570.990173,535.009766 570.996582,534.956604 570.838623,535.344849 
	C571.134888,535.822937 571.589111,535.912720 572.015381,536.007568 
	C571.987366,536.012634 571.985596,535.955811 571.971069,536.454895 
	C572.481140,536.981812 573.005798,537.009583 573.600708,537.111145 
	C573.671021,537.184937 573.959900,537.472473 573.615112,537.776123 
	C573.656372,538.888611 574.042297,539.697510 574.428284,540.506409 
z"/>
<path fill="#656AFC" opacity="1.000000" stroke="none" 
	d="
M585.424561,628.018677 
	C588.823547,622.349915 591.960266,616.051941 596.605286,611.197144 
	C604.110229,603.353516 612.607483,596.459351 621.281128,589.177002 
	C624.363342,591.442871 626.850098,593.695862 629.336792,595.948853 
	C629.336792,595.948853 629.136230,595.958679 629.192261,596.147705 
	C629.581238,596.499939 629.914185,596.663147 630.247070,596.826294 
	C630.247070,596.826294 630.156982,596.839355 630.198242,597.090576 
	C630.576782,597.496338 630.914001,597.650818 631.251282,597.805359 
	C631.251282,597.805359 631.076965,597.810364 631.142578,598.080322 
	C632.622620,599.885986 633.883057,601.615112 635.496582,602.901123 
	C636.996887,604.096863 638.873535,604.820312 640.584473,605.751709 
	C642.233765,607.192078 643.883057,608.632385 645.642212,610.519653 
	C645.752014,610.966614 645.856995,611.358643 645.506409,611.392578 
	C645.419922,611.972107 645.684021,612.517700 645.974731,613.043030 
	C646.001282,613.022827 645.934448,613.023865 646.012573,613.278198 
	C646.385803,613.709473 646.680969,613.886475 646.979248,614.031250 
	C646.982361,613.999084 646.923828,614.026672 646.947754,614.269226 
	C646.971680,614.511780 647.056274,614.991943 647.056274,614.991943 
	C632.845215,620.359619 618.666321,625.816040 604.380188,630.975952 
	C602.704102,631.581360 600.429138,630.607422 598.447632,630.272034 
	C594.239319,629.559753 590.041504,628.785889 585.424561,628.018677 
z"/>
<path fill="#D2D2D4" opacity="1.000000" stroke="none" 
	d="
M645.856995,611.358643 
	C645.856995,611.358643 645.752014,610.966614 645.804688,610.769897 
	C684.149963,649.797363 722.442505,689.021606 761.645203,729.178223 
	C758.997559,729.459900 757.938721,729.670715 756.879700,729.671021 
	C708.904236,729.686096 660.928711,729.654114 612.953430,729.740662 
	C609.453613,729.746948 607.062988,728.887695 604.496887,726.177795 
	C580.788818,701.141907 556.846924,676.327393 532.734924,651.174194 
	C533.332764,650.805603 534.168701,650.711487 535.592712,651.140991 
	C544.364319,660.137329 552.547913,668.609985 560.905029,677.380371 
	C567.705505,684.468689 574.332458,691.259399 581.113281,698.345337 
	C585.668823,703.121155 590.070496,707.601746 594.583740,712.425171 
	C599.320496,717.595032 603.945801,722.422119 608.929321,727.521729 
	C657.689148,727.859192 706.090759,727.928711 754.492371,727.937744 
	C755.123230,727.937866 755.754150,727.169434 756.152344,726.511841 
	C743.622742,713.831787 731.325867,701.399658 718.884460,688.667786 
	C707.497620,676.918884 696.255371,665.469727 684.870850,653.717651 
	C679.549927,648.237183 674.371277,643.059631 669.192627,637.882019 
	C662.882996,631.227661 656.573425,624.573364 650.021118,617.360229 
	C649.500122,616.541870 649.221741,616.282227 648.943359,616.022583 
	C648.943359,616.022583 649.002380,616.009766 648.882690,615.802612 
	C648.487671,615.406860 648.212463,615.218262 647.937195,615.029663 
	C647.937195,615.029663 648.001526,615.018066 647.880005,614.811279 
	C647.480225,614.411804 647.202026,614.219238 646.923828,614.026672 
	C646.923828,614.026672 646.982361,613.999084 646.871887,613.799011 
	C646.485779,613.407227 646.210083,613.215576 645.934448,613.023865 
	C645.934448,613.023865 646.001282,613.022827 645.977661,612.615540 
	C645.921692,611.925049 645.889343,611.641846 645.856995,611.358643 
z"/>
<path fill="#E5E5E6" opacity="1.000000" stroke="none" 
	d="
M647.123230,346.960419 
	C643.455688,342.489563 639.788208,338.018677 636.124756,333.203888 
	C637.746887,333.808929 639.747192,334.419952 640.928040,335.755524 
	C690.010254,391.270264 689.040283,473.024567 638.176880,527.779236 
	C637.391052,527.489441 637.154114,527.188354 637.089722,526.603149 
	C639.545410,523.675598 641.941223,521.120483 644.094788,518.375305 
	C670.543518,484.659760 679.882141,446.491302 672.566711,404.486237 
	C668.890198,383.375488 660.564880,363.941315 647.123230,346.960419 
z"/>
<path fill="#E5E5E6" opacity="1.000000" stroke="none" 
	d="
M487.895691,502.933990 
	C488.193939,503.160126 488.492157,503.386261 488.758636,504.147095 
	C482.456757,511.073090 476.186584,517.464417 469.614929,524.003906 
	C463.494751,530.081238 457.676025,536.010315 451.569122,542.099426 
	C450.705994,542.839172 450.125519,543.413513 449.556915,543.999451 
	C439.909790,553.940125 438.790192,550.394897 449.945923,561.608154 
	C451.602020,563.626404 453.075836,565.385315 454.641785,567.058105 
	C461.151855,574.012329 467.689667,580.940552 474.133606,588.271973 
	C473.976318,588.923706 473.902771,589.181763 473.829193,589.439819 
	C462.484009,577.760437 451.138794,566.081055 439.694122,554.299255 
	C433.413513,558.724670 430.236694,564.029724 430.356232,572.627075 
	C430.911255,612.539001 430.544708,652.463135 430.686371,692.382324 
	C430.701202,696.568420 429.655426,699.141113 425.568848,700.727661 
	C420.946747,702.522156 416.572784,704.955811 411.751617,707.179077 
	C411.066254,707.031250 410.720215,706.815857 410.519165,706.203979 
	C416.409973,702.952148 422.155823,700.096802 428.213684,696.917847 
	C428.651459,695.115784 428.886871,693.637451 428.886932,692.159058 
	C428.888275,648.484253 428.866211,604.809387 429.154541,560.993896 
	C431.006012,559.287476 432.550903,557.721802 434.391205,555.996399 
	C443.515076,546.924866 452.343506,538.013184 461.459045,528.939209 
	C470.462708,520.162659 479.179199,511.548340 487.895691,502.933990 
z"/>
<path fill="#E5E5E6" opacity="1.000000" stroke="none" 
	d="
M268.708771,291.340912 
	C269.116913,291.988251 269.525024,292.635620 269.813507,293.555664 
	C267.914001,292.504608 266.134155,291.180878 264.354309,289.857117 
	C264.599457,289.369934 264.844635,288.882751 265.089783,288.395569 
	C267.343140,288.395569 269.596497,288.395569 271.849854,288.395569 
	C359.738647,288.396454 447.627625,288.316376 535.515991,288.514069 
	C545.090088,288.535614 554.660706,290.159119 564.099609,291.382172 
	C563.596863,291.864990 563.227417,292.005157 562.493408,292.091553 
	C561.386108,292.034454 560.643433,292.031158 559.474121,292.060577 
	C555.683594,291.698547 552.319702,291.303833 548.632141,290.670288 
	C544.505371,290.307648 540.702332,290.183746 536.437317,290.081909 
	C448.553894,290.101654 361.132416,290.092468 273.710938,290.148926 
	C272.043274,290.150024 270.376160,290.926300 268.708771,291.340912 
z"/>
<path fill="#E5E5E6" opacity="1.000000" stroke="none" 
	d="
M363.092102,388.893036 
	C362.856873,389.189117 362.621674,389.485199 362.135010,389.919373 
	C338.591644,366.154175 315.299683,342.250885 291.761292,318.063080 
	C292.774567,318.118561 294.400055,318.073517 295.232178,318.863770 
	C299.328033,322.753510 303.213409,326.864899 307.562744,331.394897 
	C313.953857,337.953827 319.955292,344.015930 326.109558,350.371552 
	C333.078125,357.549622 339.893829,364.434143 346.805664,371.640137 
	C352.298553,377.605408 357.695312,383.249207 363.092102,388.893036 
z"/>
<path fill="#D2D2D4" opacity="1.000000" stroke="none" 
	d="
M587.499146,554.066772 
	C586.242004,552.792297 585.267029,551.681519 584.312256,550.196350 
	C584.538513,549.563110 584.744568,549.304382 585.238953,549.210876 
	C586.475403,550.301758 587.435486,551.215271 588.369507,552.154846 
	C594.739746,558.562988 594.737976,558.564758 602.787720,553.251343 
	C605.142456,551.842224 607.213074,550.561279 609.603149,549.172607 
	C612.094604,547.429504 614.266541,545.794067 616.751953,544.093323 
	C618.741028,542.714722 620.416687,541.401428 622.389038,539.945007 
	C624.549744,538.298523 626.413696,536.795166 628.616089,535.614502 
	C629.181641,536.150513 629.408813,536.363892 629.635986,536.577332 
	C618.821350,544.455383 608.006775,552.333374 597.049500,560.315369 
	C597.713989,561.040344 599.048279,562.496094 600.468018,564.343140 
	C599.310120,564.269470 597.781067,564.115601 596.874817,563.283447 
	C593.726990,560.392883 590.795227,557.266907 587.499146,554.066772 
z"/>
<path fill="#D2D2D4" opacity="1.000000" stroke="none" 
	d="
M632.012085,327.759216 
	C631.147766,327.830933 630.359619,327.543304 629.134277,326.814545 
	C621.372681,320.862061 614.048279,315.350677 606.808838,309.381470 
	C606.929321,308.615234 606.964783,308.306824 607.000183,307.998413 
	C615.362854,314.465576 623.725525,320.932739 632.012085,327.759216 
z"/>
<path fill="#D2D2D4" opacity="1.000000" stroke="none" 
	d="
M629.734009,595.739136 
	C626.850098,593.695862 624.363342,591.442871 621.603638,589.019165 
	C617.977966,585.193909 614.625183,581.539429 611.026855,577.329590 
	C610.501343,576.523254 610.221375,576.272217 609.941406,576.021118 
	C609.941406,576.021118 610.001282,576.008545 609.883789,575.801147 
	C609.489441,575.404968 609.212463,575.216248 608.935547,575.027466 
	C608.935547,575.027466 608.993958,575.003479 608.879089,574.799805 
	C608.487549,574.406067 608.210938,574.216064 607.934265,574.026062 
	C607.934265,574.026062 607.993896,574.004150 607.878174,573.801025 
	C607.485657,573.406738 607.208923,573.215576 606.932129,573.024353 
	C606.932129,573.024353 606.992676,573.004395 606.876099,572.802979 
	C606.483337,572.408569 606.207214,572.215576 605.931091,572.022644 
	C605.931091,572.022644 605.998779,572.022400 605.973877,571.612793 
	C605.912720,570.917297 605.876587,570.631409 605.840454,570.345581 
	C605.840454,570.345581 605.719238,569.949219 605.788574,569.753235 
	C611.857666,575.699036 617.857483,581.840759 624.108643,588.557312 
	C624.679688,589.376221 624.999390,589.620361 625.319153,589.864502 
	C625.319153,589.864502 625.136536,589.871582 625.252869,590.044312 
	C625.674561,590.425476 625.979919,590.633911 626.285278,590.842285 
	C626.285278,590.842285 626.108459,590.868164 626.236023,591.098145 
	C626.635742,591.693970 626.907898,592.059814 627.180054,592.425659 
	C628.163757,593.460266 629.147522,594.494873 629.734009,595.739136 
z"/>
<path fill="#D2D2D4" opacity="1.000000" stroke="none" 
	d="
M508.729065,626.152344 
	C510.083191,626.493652 511.670685,627.109558 513.599609,627.936279 
	C518.101624,632.672058 522.262268,637.196960 526.719482,641.892029 
	C527.308167,642.945435 527.600403,643.828613 527.560974,645.066406 
	C523.858459,641.875610 520.487610,638.330261 517.003052,634.208008 
	C516.543396,633.276062 516.197388,632.921143 515.851379,632.566162 
	C513.555054,630.519775 511.258759,628.473328 508.729065,626.152344 
z"/>
<path fill="#D2D2D4" opacity="1.000000" stroke="none" 
	d="
M485.721008,602.172363 
	C486.816223,602.256775 488.480774,602.228699 489.405365,603.041931 
	C492.147339,605.453491 494.597626,608.196655 497.436951,610.986328 
	C500.102203,614.368713 502.492401,617.575012 504.562622,621.118958 
	C502.217590,619.351013 500.192505,617.245483 497.912720,614.549072 
	C497.317932,613.692566 496.977875,613.426819 496.637817,613.161133 
	C496.637817,613.161133 496.827271,613.155945 496.719604,612.980225 
	C496.304230,612.600403 495.996490,612.396301 495.688751,612.192200 
	C495.688751,612.192200 495.841705,612.174744 495.731781,611.984985 
	C495.317352,611.584473 495.012848,611.373779 494.708344,611.163025 
	C494.708344,611.163025 494.864777,611.147156 494.749603,610.963257 
	C494.330627,610.568604 494.026825,610.357788 493.723022,610.146973 
	C493.723022,610.146973 493.899323,610.121155 493.766937,609.893921 
	C493.367065,609.297729 493.099579,608.928894 492.832062,608.559998 
	C490.538757,606.521484 488.245453,604.482910 485.721008,602.172363 
z"/>
<path fill="#D2D2D4" opacity="1.000000" stroke="none" 
	d="
M473.952301,589.737183 
	C473.902771,589.181763 473.976318,588.923706 474.418732,588.416504 
	C476.712097,590.424927 478.636597,592.682373 480.787506,595.148804 
	C481.364716,595.563232 481.715515,595.768738 482.034851,595.981934 
	C482.003418,595.989685 482.025360,595.928772 482.133453,596.162720 
	C482.519196,596.589722 482.796875,596.782776 483.042297,596.983704 
	C483.010071,596.991638 483.023438,596.926514 483.133850,597.159912 
	C483.521820,597.588135 483.799438,597.782959 484.044159,597.984375 
	C484.011292,597.991028 484.021179,597.924683 484.134918,598.157410 
	C484.526581,598.586975 484.804504,598.783875 485.244568,598.940002 
	C485.406738,598.899231 485.741119,598.894958 485.741119,598.894958 
	C485.796814,599.557556 485.852478,600.220215 485.510040,601.197998 
	C481.433075,597.686890 477.754242,593.860657 473.952301,589.737183 
z"/>
<path fill="#D2D2D4" opacity="1.000000" stroke="none" 
	d="
M640.536255,605.399292 
	C638.873535,604.820312 636.996887,604.096863 635.496582,602.901123 
	C633.883057,601.615112 632.622620,599.885986 631.153687,597.993774 
	C632.073059,597.883118 633.318481,597.831665 633.971680,598.428345 
	C636.254211,600.513611 638.332275,602.822815 640.536255,605.399292 
z"/>
<path fill="#D2D2D4" opacity="1.000000" stroke="none" 
	d="
M636.917236,526.887329 
	C637.154114,527.188354 637.391052,527.489441 637.882324,527.930664 
	C635.487427,530.784973 632.838074,533.499084 629.912354,536.395264 
	C629.408813,536.363892 629.181641,536.150513 628.780762,535.429077 
	C628.847656,534.680847 629.007080,534.395264 629.085449,534.064453 
	C630.001343,533.242798 630.917175,532.421204 632.262634,531.179321 
	C634.100525,529.468506 635.508911,528.177917 636.917236,526.887329 
z"/>
<path fill="#E5E5E6" opacity="1.000000" stroke="none" 
	d="
M564.534790,291.557617 
	C568.679871,292.271088 572.256348,293.151764 575.686340,294.497498 
	C575.202087,295.184082 574.864319,295.405579 574.170044,295.487244 
	C570.198792,294.540771 566.584106,293.734100 562.951904,292.730438 
	C562.934387,292.533447 562.858032,292.145355 562.858032,292.145325 
	C563.227417,292.005157 563.596863,291.864990 564.534790,291.557617 
z"/>
<path fill="#E5E5E6" opacity="1.000000" stroke="none" 
	d="
M606.750610,307.760803 
	C606.964783,308.306824 606.929321,308.615234 606.504272,309.187378 
	C603.884766,308.210632 601.654663,306.970215 599.692200,305.365051 
	C600.129761,304.751282 600.299683,304.502197 600.469666,304.253082 
	C602.480164,305.343109 604.490601,306.433167 606.750610,307.760803 
z"/>
<path fill="#E5E5E6" opacity="1.000000" stroke="none" 
	d="
M587.463867,298.259155 
	C589.666626,299.168732 591.869446,300.078339 594.047974,301.526672 
	C593.818909,302.304169 593.614075,302.542938 593.111084,302.612305 
	C590.672546,301.559845 588.532166,300.676819 586.665405,299.414001 
	C587.113831,298.775848 587.288818,298.517487 587.463867,298.259155 
z"/>
<path fill="#E5E5E6" opacity="1.000000" stroke="none" 
	d="
M596.926697,302.566315 
	C597.884827,302.988861 598.842896,303.411407 600.135376,304.043518 
	C600.299683,304.502197 600.129761,304.751282 599.440552,305.193542 
	C598.243530,304.971558 597.565796,304.556458 596.925110,303.748260 
	C596.950378,303.092224 596.938538,302.829285 596.926697,302.566315 
z"/>
<path fill="#E5E5E6" opacity="1.000000" stroke="none" 
	d="
M584.390686,297.109924 
	C585.221252,297.386200 586.051758,297.662445 587.173096,298.098938 
	C587.288818,298.517487 587.113831,298.775848 586.393494,299.270569 
	C585.075378,299.208496 584.302734,298.910034 583.757446,298.243225 
	C584.120117,297.619904 584.255371,297.364929 584.390686,297.109924 
z"/>
<path fill="#E5E5E6" opacity="1.000000" stroke="none" 
	d="
M581.328857,296.050476 
	C582.158997,296.294250 582.989136,296.538025 584.104980,296.945862 
	C584.255371,297.364929 584.120117,297.619904 583.476990,298.104248 
	C582.181091,298.061249 581.393005,297.788849 580.800659,297.157257 
	C581.107178,296.548859 581.218018,296.299652 581.328857,296.050476 
z"/>
<path fill="#E5E5E6" opacity="1.000000" stroke="none" 
	d="
M578.325256,295.047058 
	C579.139038,295.276367 579.952881,295.505676 581.047729,295.892731 
	C581.218018,296.299652 581.107178,296.548859 580.505005,297.043701 
	C579.219177,297.021027 578.424866,296.752655 577.814087,296.129761 
	C578.106812,295.532532 578.216064,295.289795 578.325256,295.047058 
z"/>
<path fill="#E5E5E6" opacity="1.000000" stroke="none" 
	d="
M576.075684,294.679962 
	C577.082581,294.536530 577.553650,294.675690 578.174927,294.930969 
	C578.216064,295.289795 578.106812,295.532532 577.510620,296.023438 
	C576.191223,296.056763 575.358887,295.841888 574.526550,295.627075 
	C574.864319,295.405579 575.202087,295.184082 576.075684,294.679962 
z"/>
<path fill="#E5E5E6" opacity="1.000000" stroke="none" 
	d="
M594.349487,301.723969 
	C595.275513,301.610107 595.875671,301.837646 596.322754,302.569214 
	C595.922607,303.281921 595.675659,303.490631 595.199951,303.542053 
	C594.450500,303.183777 593.929932,302.982758 593.409302,302.781738 
	C593.614075,302.542938 593.818909,302.304169 594.349487,301.723969 
z"/>
<path fill="#E5E5E6" opacity="1.000000" stroke="none" 
	d="
M496.776154,613.456970 
	C496.977875,613.426819 497.317932,613.692566 497.792175,614.262756 
	C497.589111,614.295776 497.251801,614.024292 496.776154,613.456970 
z"/>
<path fill="#E5E5E6" opacity="1.000000" stroke="none" 
	d="
M495.797485,612.448853 
	C495.996490,612.396301 496.304230,612.600403 496.705078,613.073853 
	C496.500916,613.130615 496.203583,612.918030 495.797485,612.448853 
z"/>
<path fill="#E5E5E6" opacity="1.000000" stroke="none" 
	d="
M515.884644,633.007629 
	C516.197388,632.921143 516.543396,633.276062 517.151123,633.895874 
	C516.914551,633.923462 516.416260,633.686279 515.884644,633.007629 
z"/>
<path fill="#E5E5E6" opacity="1.000000" stroke="none" 
	d="
M596.560669,302.786255 
	C596.951721,302.499298 596.911316,302.645599 596.919006,302.605957 
	C596.938538,302.829285 596.950378,303.092224 596.676575,303.692993 
	C596.070190,303.920319 595.749451,303.809814 595.428711,303.699341 
	C595.675659,303.490631 595.922607,303.281921 596.560669,302.786255 
z"/>
<path fill="#E5E5E6" opacity="1.000000" stroke="none" 
	d="
M625.192993,589.586182 
	C624.999390,589.620361 624.679688,589.376221 624.235107,588.851562 
	C624.429199,588.816650 624.748047,589.062256 625.192993,589.586182 
z"/>
<path fill="#E5E5E6" opacity="1.000000" stroke="none" 
	d="
M626.172974,590.584778 
	C625.979919,590.633911 625.674561,590.425476 625.263184,589.953613 
	C625.458374,589.902466 625.759521,590.114868 626.172974,590.584778 
z"/>
<path fill="#E5E5E6" opacity="1.000000" stroke="none" 
	d="
M627.201538,592.047119 
	C626.907898,592.059814 626.635742,591.693970 626.235718,591.008789 
	C626.479553,591.015808 626.851257,591.342163 627.201538,592.047119 
z"/>
<path fill="#D2D2D4" opacity="1.000000" stroke="none" 
	d="
M630.391602,596.430481 
	C629.914185,596.663147 629.581238,596.499939 629.196655,596.047363 
	C629.608643,595.850281 630.072388,595.942444 630.391602,596.430481 
z"/>
<path fill="#D2D2D4" opacity="1.000000" stroke="none" 
	d="
M631.388855,597.421143 
	C630.914001,597.650818 630.576782,597.496338 630.208252,597.046204 
	C630.626831,596.846069 631.076660,596.941467 631.388855,597.421143 
z"/>
<path fill="#E5E5E6" opacity="1.000000" stroke="none" 
	d="
M492.812195,608.938477 
	C493.099579,608.928894 493.367065,609.297729 493.768250,609.982971 
	C493.532074,609.971863 493.162170,609.644470 492.812195,608.938477 
z"/>
<path fill="#E5E5E6" opacity="1.000000" stroke="none" 
	d="
M493.835693,610.404785 
	C494.026825,610.357788 494.330627,610.568604 494.742798,611.041626 
	C494.550232,611.090088 494.249298,610.876404 493.835693,610.404785 
z"/>
<path fill="#E5E5E6" opacity="1.000000" stroke="none" 
	d="
M494.819214,611.420959 
	C495.012848,611.373779 495.317352,611.584473 495.723114,612.061462 
	C495.526276,612.111450 495.228180,611.895142 494.819214,611.420959 
z"/>
<path fill="#9A50FE" opacity="1.000000" stroke="none" 
	d="
M637.089722,526.603149 
	C635.508911,528.177917 634.100525,529.468506 632.411804,530.907715 
	C630.754761,527.661560 628.188843,524.262329 628.201477,520.872803 
	C628.266174,503.527679 628.995850,486.184998 629.492615,468.841461 
	C629.662354,462.913666 629.897461,456.986877 629.988281,451.057892 
	C630.350891,427.368011 630.673340,403.677521 630.999756,379.987122 
	C631.088196,373.568665 630.538147,367.059540 631.482117,360.772369 
	C631.897705,358.004425 635.041504,355.377747 637.443909,353.247894 
	C640.140503,350.857117 643.399170,349.100311 646.768311,347.014038 
	C660.564880,363.941315 668.890198,383.375488 672.566711,404.486237 
	C679.882141,446.491302 670.543518,484.659760 644.094788,518.375305 
	C641.941223,521.120483 639.545410,523.675598 637.089722,526.603149 
z"/>
<path fill="#815BFE" opacity="1.000000" stroke="none" 
	d="
M628.787720,533.894775 
	C629.007080,534.395264 628.847656,534.680847 628.442383,535.106506 
	C626.413696,536.795166 624.549744,538.298523 622.221436,539.647217 
	C616.328552,533.663696 610.849121,527.881104 605.484497,521.993896 
	C599.150330,515.042786 591.427490,508.814178 587.038147,500.780029 
	C582.246399,492.009338 575.988953,484.770203 569.507385,477.638184 
	C565.257446,472.961731 560.790771,467.208771 552.857971,468.884949 
	C560.657776,462.628937 566.773804,455.191833 569.294983,445.271088 
	C572.403625,433.038544 571.218628,421.412567 564.464355,410.107605 
	C565.058655,408.899597 565.812378,408.222168 565.841492,407.514862 
	C566.171143,399.503510 566.836670,391.471039 566.540955,383.476440 
	C566.005249,368.986481 564.879150,354.518341 564.370789,339.869751 
	C571.983032,338.251068 579.214294,336.750427 586.476624,335.419952 
	C587.451233,335.241394 588.662598,335.759613 589.628235,336.232941 
	C593.443970,338.103241 597.205383,340.084198 600.987000,342.024109 
	C601.824280,345.051697 603.108398,348.046051 603.337097,351.118927 
	C603.482422,353.071655 602.541565,355.559509 601.233643,357.065735 
	C598.937378,359.710175 598.579590,362.008148 599.093140,365.580261 
	C600.078979,372.438629 599.965759,379.487671 599.908569,386.454315 
	C599.847900,393.847778 599.294250,401.236298 599.006775,408.628937 
	C598.464478,422.571655 597.809937,436.512238 597.479370,450.460297 
	C597.145081,464.564026 596.517822,478.711792 597.323669,492.765411 
	C597.628235,498.076477 600.581543,504.015900 604.081421,508.202728 
	C611.614380,517.214417 620.284973,525.275085 628.787720,533.894775 
z"/>
<path fill="#8C71FE" opacity="1.000000" stroke="none" 
	d="
M601.299316,341.872803 
	C597.205383,340.084198 593.443970,338.103241 589.628235,336.232941 
	C588.662598,335.759613 587.451233,335.241394 586.476624,335.419952 
	C579.214294,336.750427 571.983032,338.251068 564.067261,339.694183 
	C558.535217,337.303802 553.891602,334.018890 548.757263,332.797974 
	C544.127441,331.697021 538.960205,332.855865 533.725769,332.849060 
	C531.759399,331.668945 530.148804,330.557770 528.424377,329.667175 
	C524.648926,327.717316 520.815735,325.879303 517.019775,323.602295 
	C516.885559,320.501984 516.549927,317.787201 516.661255,315.090912 
	C516.726257,313.515656 517.022705,311.315491 518.064026,310.547363 
	C520.222778,308.954956 522.847534,307.543671 525.458435,307.096649 
	C534.358093,305.572968 537.887695,300.849976 536.071411,292.134949 
	C536.004272,291.812836 536.030212,291.471344 536.432739,291.060059 
	C537.132996,290.930847 537.413391,290.880493 538.080688,290.825256 
	C541.963745,290.849915 545.459778,290.879517 548.955811,290.909119 
	C552.319702,291.303833 555.683594,291.698547 559.755981,292.229919 
	C561.299377,292.553528 562.134399,292.740479 562.969360,292.927429 
	C566.584106,293.734100 570.198792,294.540771 574.170044,295.487244 
	C575.358887,295.841888 576.191223,296.056763 577.327026,296.377960 
	C578.424866,296.752655 579.219177,297.021027 580.309265,297.402954 
	C581.393005,297.788849 582.181091,298.061249 583.249573,298.472595 
	C584.302734,298.910034 585.075378,299.208496 586.119995,299.650391 
	C588.532166,300.676819 590.672546,301.559845 593.111084,302.612305 
	C593.929932,302.982758 594.450500,303.183777 595.199951,303.542053 
	C595.749451,303.809814 596.070190,303.920319 596.639465,304.086090 
	C597.565796,304.556458 598.243530,304.971558 599.172974,305.558228 
	C601.654663,306.970215 603.884766,308.210632 606.419312,309.645203 
	C614.048279,315.350677 621.372681,320.862061 628.843628,326.671875 
	C619.864014,331.887390 610.737854,336.804443 601.299316,341.872803 
z"/>
<path fill="#5594FD" opacity="1.000000" stroke="none" 
	d="
M325.956726,350.078003 
	C319.955292,344.015930 313.953857,337.953827 307.846008,331.569275 
	C309.018280,330.532288 310.232452,329.365387 311.585632,329.172211 
	C327.789734,326.858765 343.973602,324.286407 360.249390,322.636322 
	C369.812714,321.666779 379.564972,320.166809 389.742493,323.274536 
	C394.214264,328.721344 398.108337,333.857361 401.692566,339.139374 
	C398.586914,341.524933 395.791077,343.764435 392.578247,345.986328 
	C384.984619,345.011932 377.769897,343.060059 370.640533,343.333618 
	C360.162109,343.735687 349.725861,345.597015 339.309998,347.102112 
	C334.809540,347.752472 330.404907,349.065826 325.956726,350.078003 
z"/>
<path fill="#6E94FD" opacity="1.000000" stroke="none" 
	d="
M402.009613,315.997467 
	C401.356659,314.695374 401.036713,312.959381 399.996887,312.161407 
	C393.087402,306.858826 393.726776,299.430115 394.465332,291.551605 
	C407.955872,291.077423 420.981384,291.113403 434.006531,291.581818 
	C433.295135,298.031158 434.647552,303.069977 440.492218,306.103607 
	C441.148895,306.444458 441.513245,307.348541 441.850586,308.286682 
	C438.126984,312.385284 434.565918,316.188690 430.613007,319.932800 
	C420.817322,318.581482 411.413452,317.289490 402.009613,315.997467 
z"/>
<path fill="#658FFD" opacity="1.000000" stroke="none" 
	d="
M401.653870,316.047119 
	C411.413452,317.289490 420.817322,318.581482 430.827698,320.190002 
	C435.457428,323.496063 440.672943,325.283569 441.953369,331.341156 
	C439.599396,335.794586 437.294312,339.895874 434.553223,343.998535 
	C431.359497,343.601685 428.596954,343.233673 425.844879,342.799408 
	C417.895142,341.545044 409.949615,340.263947 402.002441,338.993347 
	C398.108337,333.857361 394.214264,328.721344 390.161285,323.290833 
	C393.767639,320.696472 397.532867,318.396637 401.653870,316.047119 
z"/>
<path fill="#838488" opacity="1.000000" stroke="none" 
	d="
M434.006866,291.149384 
	C420.981384,291.113403 407.955872,291.077423 394.464081,291.095032 
	C352.489929,291.128540 310.982056,291.108490 269.091492,291.214661 
	C270.376160,290.926300 272.043274,290.150024 273.710938,290.148926 
	C361.132416,290.092468 448.553894,290.101654 536.648621,290.261475 
	C537.445740,290.556061 537.569702,290.693085 537.693726,290.830139 
	C537.413391,290.880493 537.132996,290.930847 535.964600,291.011475 
	C501.386688,291.077576 467.696777,291.113464 434.006866,291.149384 
z"/>
<path fill="#6055DC" opacity="1.000000" stroke="none" 
	d="
M560.731506,677.082642 
	C552.547913,668.609985 544.364319,660.137329 536.013000,651.373779 
	C541.669922,650.058716 547.466125,648.811523 553.325989,648.062378 
	C562.233765,646.923706 571.176025,646.009277 580.127258,645.296265 
	C581.851746,645.158936 583.855408,646.104553 585.426086,647.053894 
	C587.518921,648.318787 589.245300,650.172607 591.251038,651.602478 
	C595.462036,654.604675 599.730225,656.179077 605.354675,655.248474 
	C610.429443,654.408875 615.851013,655.665283 621.721863,656.294678 
	C626.548584,659.395447 630.773071,662.198914 634.811401,665.309082 
	C627.416016,668.411377 620.206787,671.206909 612.583496,674.018555 
	C605.618164,674.364685 599.063721,674.641235 592.516418,675.037109 
	C581.918945,675.677673 571.326233,676.396729 560.731506,677.082642 
z"/>
<path fill="#6E53E5" opacity="1.000000" stroke="none" 
	d="
M634.997559,665.002441 
	C630.773071,662.198914 626.548584,659.395447 622.160767,656.293518 
	C624.391907,654.131165 626.708252,652.155273 629.194763,650.423706 
	C637.539612,644.612549 647.203064,642.678040 656.983093,641.009705 
	C660.860291,640.348328 664.647888,639.162231 668.834473,638.048584 
	C674.371277,643.059631 679.549927,648.237183 684.482544,653.727112 
	C680.288574,655.271484 676.409607,656.834045 672.379944,657.674011 
	C659.950012,660.264954 647.462646,662.580139 634.997559,665.002441 
z"/>
<path fill="#E5E5E6" opacity="1.000000" stroke="none" 
	d="
M646.947754,614.269226 
	C647.202026,614.219238 647.480225,614.411804 647.864136,614.839844 
	C647.969910,615.075256 647.510437,615.060852 647.283325,615.026367 
	C647.056274,614.991943 646.971680,614.511780 646.947754,614.269226 
z"/>
<path fill="#E5E5E6" opacity="1.000000" stroke="none" 
	d="
M648.001099,615.291382 
	C648.212463,615.218262 648.487671,615.406860 648.866455,615.828125 
	C648.668335,615.891541 648.366638,615.722290 648.001099,615.291382 
z"/>
<path fill="#E5E5E6" opacity="1.000000" stroke="none" 
	d="
M649.011108,616.306213 
	C649.221741,616.282227 649.500122,616.541870 649.861084,617.083008 
	C649.655334,617.106262 649.367065,616.848022 649.011108,616.306213 
z"/>
<path fill="#337EFD" opacity="1.000000" stroke="none" 
	d="
M480.561066,594.939880 
	C478.636597,592.682373 476.712097,590.424927 474.502441,588.022827 
	C467.689667,580.940552 461.151855,574.012329 454.641785,567.058105 
	C453.075836,565.385315 451.602020,563.626404 450.372620,561.511719 
	C457.563873,561.076965 464.470032,561.118958 471.372589,560.980713 
	C485.072449,560.706482 498.773987,560.420349 512.462769,559.849915 
	C513.682739,559.799133 515.689331,557.726929 515.825684,556.434692 
	C516.259338,552.325684 515.981140,548.141479 515.983093,543.520081 
	C515.967773,537.685059 515.947388,532.316284 515.936646,526.482300 
	C515.976746,510.993683 516.007141,495.970306 516.037476,480.946960 
	C525.169434,490.251770 534.301331,499.556580 543.979614,508.995972 
	C544.738708,509.402313 544.951416,509.674042 545.172424,510.285461 
	C548.130737,513.087097 551.080872,515.549133 554.007446,518.013428 
	C553.983948,518.015808 553.983948,517.968628 553.881470,518.331116 
	C554.196472,518.800598 554.614014,518.907593 555.007324,519.015747 
	C554.983093,519.016846 554.985352,518.968445 554.878174,519.332581 
	C555.191101,519.803284 555.611267,519.909851 556.007019,520.016846 
	C555.982605,520.017334 555.983643,519.968506 555.872559,520.334534 
	C556.184814,520.805969 556.608154,520.911438 557.007202,521.016968 
	C556.982910,521.017090 556.983032,520.968506 556.870300,521.337830 
	C557.182312,521.809570 557.607117,521.911987 558.007568,522.015625 
	C557.983215,522.016785 557.985474,521.968140 557.863647,522.339966 
	C558.171936,522.812317 558.602051,522.912720 559.008057,523.014526 
	C558.984009,523.015930 558.986694,522.967834 558.859497,523.343445 
	C559.165649,523.816223 559.598999,523.913330 560.009155,524.012268 
	C559.985962,524.014038 559.989441,523.967651 559.851929,524.343994 
	C560.153748,524.817871 560.593140,524.915466 561.008301,525.014404 
	C560.984131,525.015808 560.986938,524.967407 560.849182,525.345154 
	C561.151794,525.820251 561.592224,525.917664 562.007751,526.016052 
	C561.982910,526.017029 561.984924,525.967346 561.845825,526.346924 
	C562.148682,526.822449 562.590637,526.918457 563.010376,527.014160 
	C562.988159,527.013794 562.996155,526.970093 562.703796,527.244751 
	C562.639099,528.000732 562.866760,528.482056 563.094421,528.963440 
	C558.033630,533.170410 552.817505,537.206055 547.944885,541.620728 
	C538.342041,550.321167 528.135986,558.539429 519.662964,568.251404 
	C511.281952,577.858032 500.624908,584.790649 492.202179,594.199402 
	C490.575745,596.016296 488.294861,597.247253 486.028503,598.821716 
	C485.741119,598.894958 485.406738,598.899231 485.164612,598.681091 
	C484.622070,598.283508 484.321625,598.104126 484.021179,597.924683 
	C484.021179,597.924683 484.011292,597.991028 483.968903,597.724243 
	C483.625488,597.280396 483.324463,597.103455 483.023438,596.926514 
	C483.023438,596.926514 483.010071,596.991638 482.969788,596.722900 
	C482.628082,596.279053 482.326721,596.103943 482.025360,595.928772 
	C482.025360,595.928772 482.003418,595.989685 481.908508,595.661194 
	C481.396088,595.201782 480.978577,595.070801 480.561066,594.939880 
z"/>
<path fill="#7D8CFE" opacity="1.000000" stroke="none" 
	d="
M488.064178,502.645874 
	C479.179199,511.548340 470.462708,520.162659 461.175690,528.729370 
	C457.927521,525.481445 455.266815,522.266785 452.568848,519.083740 
	C445.450714,510.685730 438.311279,502.305786 431.192566,493.908203 
	C429.617859,492.050598 428.303406,489.909943 426.493561,488.329712 
	C424.197815,486.325165 421.518677,484.759674 419.003326,482.584717 
	C419.000122,480.493805 418.998474,478.823029 419.463196,477.101929 
	C450.943909,477.069489 481.958221,477.087402 512.972534,477.105286 
	C504.725891,485.522766 496.479279,493.940247 488.064178,502.645874 
z"/>
<path fill="#7462FD" opacity="1.000000" stroke="none" 
	d="
M534.029968,333.018066 
	C538.960205,332.855865 544.127441,331.697021 548.757263,332.797974 
	C553.891602,334.018890 558.535217,337.303802 563.695984,339.865540 
	C564.879150,354.518341 566.005249,368.986481 566.540955,383.476440 
	C566.836670,391.471039 566.171143,399.503510 565.841492,407.514862 
	C565.812378,408.222168 565.058655,408.899597 564.314575,409.795593 
	C555.289368,398.124146 544.167542,390.691681 528.446655,390.364624 
	C527.453491,384.445892 526.831299,379.031982 526.418091,373.602203 
	C526.285034,371.854523 526.071594,369.596710 526.977661,368.375702 
	C530.864014,363.138519 529.527527,358.586151 526.004517,353.964264 
	C525.126343,352.812195 524.654480,351.350342 524.157654,349.727631 
	C527.556274,343.955597 530.793091,338.486847 534.029968,333.018066 
z"/>
<path fill="#656AFC" opacity="1.000000" stroke="none" 
	d="
M523.995911,350.030884 
	C524.654480,351.350342 525.126343,352.812195 526.004517,353.964264 
	C529.527527,358.586151 530.864014,363.138519 526.977661,368.375702 
	C526.071594,369.596710 526.285034,371.854523 526.418091,373.602203 
	C526.831299,379.031982 527.453491,384.445892 527.989624,390.313110 
	C513.958801,390.834534 499.932953,390.908783 485.377441,390.529968 
	C484.224670,386.051239 483.601562,382.025635 483.128784,377.689453 
	C485.010162,374.590637 486.566803,371.672485 488.520203,369.049835 
	C490.563080,366.307007 490.222961,364.171783 488.183594,361.558502 
	C486.434479,359.317169 485.358032,356.550873 484.037262,353.661194 
	C485.396179,350.209167 486.701935,347.112671 488.399414,344.016571 
	C492.913940,344.773376 497.028564,345.577820 501.161194,346.275848 
	C508.767212,347.560547 516.383728,348.782684 523.995911,350.030884 
z"/>
<path fill="#2D5FC7" opacity="1.000000" stroke="none" 
	d="
M427.901672,697.241455 
	C422.155823,700.096802 416.409973,702.952148 410.341431,705.954468 
	C385.759857,717.850952 361.505249,729.609253 337.239075,741.343689 
	C331.129761,744.298035 324.983490,747.175842 318.442017,749.659668 
	C318.070801,746.471985 318.111755,743.713318 318.497620,740.907227 
	C330.324341,734.935730 342.000641,729.356506 353.245270,723.012085 
	C373.300720,711.696411 393.114716,699.951355 412.981995,688.304504 
	C416.755188,686.092529 420.307526,683.503784 424.197815,680.831238 
	C425.555603,680.370056 426.677277,680.166504 427.854065,680.429932 
	C427.906647,686.345032 427.904144,691.793274 427.901672,697.241455 
z"/>
<path fill="#2D5FC7" opacity="1.000000" stroke="none" 
	d="
M515.910828,480.664246 
	C516.007141,495.970306 515.976746,510.993683 515.495667,526.495972 
	C509.355133,526.664246 503.666595,526.327637 497.975128,526.050171 
	C491.905304,525.754333 485.825439,525.621460 479.764343,525.207397 
	C476.466278,524.982117 473.198090,524.320557 469.916443,523.855713 
	C476.186584,517.464417 482.456757,511.073090 488.893799,504.396545 
	C496.711304,496.564972 504.322449,488.977570 512.069275,481.531342 
	C512.904419,480.728638 514.526917,480.745087 515.910828,480.664246 
z"/>
<path fill="#6E53E5" opacity="1.000000" stroke="none" 
	d="
M552.530396,468.990540 
	C560.790771,467.208771 565.257446,472.961731 569.507385,477.638184 
	C575.988953,484.770203 582.246399,492.009338 587.038147,500.780029 
	C591.427490,508.814178 599.150330,515.042786 605.484497,521.993896 
	C610.849121,527.881104 616.328552,533.663696 621.924744,539.790405 
	C620.416687,541.401428 618.741028,542.714722 616.516296,543.818115 
	C614.979919,542.288452 614.164612,540.783630 612.977112,539.679077 
	C605.822998,533.024658 598.221130,526.811829 591.448181,519.795715 
	C577.312805,505.153046 563.580505,490.120392 549.757446,475.178741 
	C548.825928,474.171875 548.519592,472.586670 547.922424,471.270447 
	C549.349182,470.545685 550.776001,469.820923 552.530396,468.990540 
z"/>
<path fill="#6140B8" opacity="1.000000" stroke="none" 
	d="
M545.164185,509.945740 
	C544.951416,509.674042 544.738708,509.402313 544.321045,508.969360 
	C543.237000,507.146729 542.675476,505.182465 541.427124,503.872803 
	C533.134827,495.172668 524.695496,486.612640 515.834412,477.525513 
	C520.132751,477.156189 523.649292,476.854034 527.577332,476.745789 
	C528.272522,477.706757 528.350769,478.671021 528.870056,479.211670 
	C539.088623,489.850952 549.269592,500.530029 559.699463,510.959625 
	C561.593262,512.853394 564.549072,513.685181 567.061890,515.352112 
	C570.596252,519.564575 574.008362,523.502930 577.585388,527.285400 
	C585.848999,536.023621 594.192505,544.686218 602.503601,553.379517 
	C594.737976,558.564758 594.739746,558.562988 588.369507,552.154846 
	C587.435486,551.215271 586.475403,550.301758 585.056213,548.932739 
	C581.043335,544.817078 577.501587,541.144775 573.959900,537.472473 
	C573.959900,537.472473 573.671021,537.184937 573.381104,536.869263 
	C572.722656,536.354309 572.354126,536.155029 571.985596,535.955811 
	C571.985596,535.955811 571.987366,536.012634 571.970764,535.728638 
	C571.634949,535.281921 571.315796,535.119263 570.996582,534.956604 
	C570.996582,534.956604 570.990173,535.009766 570.974060,534.725708 
	C570.638916,534.280090 570.319946,534.118652 570.000916,533.957153 
	C570.000916,533.957153 569.992615,534.007324 569.982178,533.719360 
	C569.648499,533.273315 569.325378,533.115356 569.002197,532.957336 
	C569.002197,532.957336 568.993225,533.006775 568.985718,532.716797 
	C568.653015,532.270325 568.327820,532.113892 568.002625,531.957397 
	C568.002625,531.957397 567.993408,532.006531 567.987671,531.715149 
	C567.655029,531.268250 567.328186,531.112732 567.001282,530.957214 
	C567.001282,530.957214 566.992737,531.007202 566.990112,530.713989 
	C566.659973,530.266418 566.332520,530.112061 566.005066,529.957764 
	C566.005066,529.957764 565.994385,530.005554 565.997437,529.708618 
	C565.669250,529.260498 565.338013,529.109314 565.006836,528.958130 
	C565.006836,528.958130 564.995850,529.000000 564.987305,528.670410 
	C564.317871,527.883911 563.657043,527.427002 562.996155,526.970093 
	C562.996155,526.970093 562.988159,527.013794 563.001770,526.712158 
	C562.671875,526.262817 562.328430,526.115051 561.984924,525.967346 
	C561.984924,525.967346 561.982910,526.017029 562.000977,525.712341 
	C561.674988,525.260925 561.330933,525.114136 560.986938,524.967407 
	C560.986938,524.967407 560.984131,525.015808 561.007202,524.708008 
	C560.683289,524.256042 560.336365,524.111816 559.989441,523.967651 
	C559.989441,523.967651 559.985962,524.014038 560.012695,523.703735 
	C559.688538,523.251526 559.337585,523.109680 558.986694,522.967834 
	C558.986694,522.967834 558.984009,523.015930 559.013733,522.704285 
	C558.690796,522.251160 558.338135,522.109619 557.985474,521.968140 
	C557.985474,521.968140 557.983215,522.016785 558.015259,521.703613 
	C557.692505,521.249756 557.337769,521.109131 556.983032,520.968506 
	C556.983032,520.968506 556.982910,521.017090 557.017578,520.703186 
	C556.696106,520.249023 556.339844,520.108765 555.983643,519.968506 
	C555.983643,519.968506 555.982605,520.017334 556.020996,519.700500 
	C555.701355,519.245239 555.343323,519.106873 554.985352,518.968445 
	C554.985352,518.968445 554.983093,519.016846 555.027344,518.697266 
	C554.708984,518.241333 554.346497,518.104980 553.983948,517.968628 
	C553.983948,517.968628 553.983948,518.015808 554.030518,517.666382 
	C551.106079,514.859863 548.135132,512.402832 545.164185,509.945740 
z"/>
<path fill="#694BD3" opacity="1.000000" stroke="none" 
	d="
M547.601685,471.367676 
	C548.519592,472.586670 548.825928,474.171875 549.757446,475.178741 
	C563.580505,490.120392 577.312805,505.153046 591.448181,519.795715 
	C598.221130,526.811829 605.822998,533.024658 612.977112,539.679077 
	C614.164612,540.783630 614.979919,542.288452 616.202881,543.883545 
	C614.266541,545.794067 612.094604,547.429504 609.404846,548.870056 
	C597.567810,537.268616 586.296143,525.813904 574.874084,514.511108 
	C573.300476,512.953918 570.981323,512.150146 568.956726,510.656494 
	C561.480469,502.335571 554.015930,494.391327 546.646729,486.359650 
	C543.331726,482.746643 540.206848,478.959106 536.995728,475.250793 
	C540.424133,473.988831 543.852539,472.726868 547.601685,471.367676 
z"/>
<path fill="#3D86FD" opacity="1.000000" stroke="none" 
	d="
M363.427856,389.085632 
	C357.695312,383.249207 352.298553,377.605408 347.083588,371.346405 
	C358.979706,367.227844 370.882019,366.189758 383.052490,368.348724 
	C384.257538,370.042633 385.466583,371.351501 386.557037,372.752686 
	C391.047455,378.522644 395.501862,384.320679 399.969482,390.108398 
	C389.550812,390.377228 379.132996,390.722473 368.712646,390.835938 
	C367.068817,390.853851 365.413544,389.823730 363.427856,389.085632 
z"/>
<path fill="#4E70FD" opacity="1.000000" stroke="none" 
	d="
M482.978455,378.000000 
	C483.601562,382.025635 484.224670,386.051239 484.911743,390.460724 
	C474.293579,390.850800 463.611420,390.857025 452.400635,390.484192 
	C446.246765,382.739319 440.621552,375.373505 435.213165,367.749268 
	C438.282990,365.993469 441.135986,364.496124 444.321411,363.150391 
	C454.061554,367.028656 463.455444,370.791016 472.884552,374.462891 
	C476.204834,375.755859 479.611359,376.827362 482.978455,378.000000 
z"/>
<path fill="#407EFD" opacity="1.000000" stroke="none" 
	d="
M400.263306,390.409302 
	C395.501862,384.320679 391.047455,378.522644 386.557037,372.752686 
	C385.466583,371.351501 384.257538,370.042633 383.418823,368.294128 
	C389.156830,365.602417 394.579041,363.307922 400.380371,361.022888 
	C407.168549,363.358521 413.577545,365.684662 419.985291,368.425293 
	C418.987366,376.148193 417.990692,383.456635 416.994019,390.765076 
	C411.515045,390.746796 406.036102,390.728485 400.263306,390.409302 
z"/>
<path fill="#4A79FD" opacity="1.000000" stroke="none" 
	d="
M417.460144,390.818604 
	C417.990692,383.456635 418.987366,376.148193 420.452942,368.420685 
	C425.613342,368.003632 430.304840,368.005676 434.996338,368.007690 
	C440.621552,375.373505 446.246765,382.739319 451.934814,390.430359 
	C440.640533,390.794434 429.283417,390.833282 417.460144,390.818604 
z"/>
<path fill="#5E4FCE" opacity="1.000000" stroke="none" 
	d="
M536.596680,475.234253 
	C540.206848,478.959106 543.331726,482.746643 546.646729,486.359650 
	C554.015930,494.391327 561.480469,502.335571 568.948853,511.002258 
	C568.332642,512.795105 567.673645,513.901123 567.014648,515.007202 
	C564.549072,513.685181 561.593262,512.853394 559.699463,510.959625 
	C549.269592,500.530029 539.088623,489.850952 528.870056,479.211670 
	C528.350769,478.671021 528.272522,477.706757 527.953003,476.592896 
	C530.677307,475.903229 533.437439,475.560455 536.596680,475.234253 
z"/>
<path fill="#838488" opacity="1.000000" stroke="none" 
	d="
M318.152740,740.954712 
	C318.111755,743.713318 318.070801,746.471985 318.082947,749.694458 
	C317.810150,748.610291 317.199707,747.062500 317.198914,745.514404 
	C317.153259,657.354919 317.157440,569.195435 317.167816,481.035919 
	C317.167969,479.875916 317.310638,478.715942 317.687866,477.269287 
	C317.988953,476.982605 318.015228,477.015228 318.009521,477.482544 
	C318.053589,488.969940 318.103333,499.989960 318.102997,511.475586 
	C318.084717,528.627747 318.116516,545.314270 318.095459,562.456604 
	C318.080719,566.276978 318.118866,569.641663 318.105865,573.471985 
	C318.089050,588.627075 318.123413,603.316406 318.104126,618.471497 
	C318.086304,634.294128 318.122070,649.651123 318.105377,665.473511 
	C318.084686,685.619263 318.116486,705.299561 318.092163,725.422607 
	C318.078949,728.238281 318.121887,730.611267 318.110840,733.425415 
	C318.088837,736.229309 318.120789,738.592041 318.152740,740.954712 
z"/>
<path fill="#838488" opacity="1.000000" stroke="none" 
	d="
M512.725037,476.765564 
	C481.958221,477.087402 450.943909,477.069489 418.997070,477.050476 
	C399.708038,477.084381 381.351471,477.119415 362.528992,477.102600 
	C347.380432,477.038879 332.697845,477.027039 318.015228,477.015198 
	C318.015228,477.015228 317.988953,476.982605 317.977600,476.964478 
	C319.217957,476.683777 320.469543,476.192230 321.721405,476.191498 
	C384.483521,476.154785 447.245636,476.158966 510.007782,476.171600 
	C510.831055,476.171783 511.654297,476.337402 512.725037,476.765564 
z"/>
<path fill="#E5E5E6" opacity="1.000000" stroke="none" 
	d="
M573.615112,537.776123 
	C577.501587,541.144775 581.043335,544.817078 584.767822,548.767456 
	C584.744568,549.304382 584.538513,549.563110 584.115234,549.947998 
	C580.932129,547.018738 577.966309,543.963318 574.714355,540.707153 
	C574.042297,539.697510 573.656372,538.888611 573.615112,537.776123 
z"/>
<path fill="#E5E5E6" opacity="1.000000" stroke="none" 
	d="
M605.488342,570.384705 
	C605.876587,570.631409 605.912720,570.917297 605.948547,571.635254 
	C605.677490,571.519531 605.406860,570.971680 605.488342,570.384705 
z"/>
<path fill="#E5E5E6" opacity="1.000000" stroke="none" 
	d="
M606.010376,572.277405 
	C606.207214,572.215576 606.483337,572.408569 606.868286,572.833862 
	C606.681274,572.888184 606.385437,572.710144 606.010376,572.277405 
z"/>
<path fill="#E5E5E6" opacity="1.000000" stroke="none" 
	d="
M607.008057,573.280640 
	C607.208923,573.215576 607.485657,573.406738 607.868774,573.831421 
	C607.678101,573.888794 607.381042,573.712830 607.008057,573.280640 
z"/>
<path fill="#E5E5E6" opacity="1.000000" stroke="none" 
	d="
M608.007874,574.282959 
	C608.210938,574.216064 608.487549,574.406067 608.868958,574.829712 
	C608.676270,574.888794 608.378906,574.714355 608.007874,574.282959 
z"/>
<path fill="#E5E5E6" opacity="1.000000" stroke="none" 
	d="
M609.006714,575.285278 
	C609.212463,575.216248 609.489441,575.404968 609.869263,575.828003 
	C609.674133,575.889221 609.376038,575.716187 609.006714,575.285278 
z"/>
<path fill="#E5E5E6" opacity="1.000000" stroke="none" 
	d="
M610.016724,576.298096 
	C610.221375,576.272217 610.501343,576.523254 610.866089,577.051208 
	C610.664612,577.077087 610.378296,576.826111 610.016724,576.298096 
z"/>
<path fill="#E5E5E6" opacity="1.000000" stroke="none" 
	d="
M562.703796,527.244751 
	C563.657043,527.427002 564.317871,527.883911 565.004822,528.657715 
	C564.629211,529.070557 564.227478,529.166443 563.460083,529.112915 
	C562.866760,528.482056 562.639099,528.000732 562.703796,527.244751 
z"/>
<path fill="#E5E5E6" opacity="1.000000" stroke="none" 
	d="
M568.845703,533.342285 
	C569.325378,533.115356 569.648499,533.273315 570.007202,533.715210 
	C569.591553,533.908386 569.140381,533.817810 568.845703,533.342285 
z"/>
<path fill="#E5E5E6" opacity="1.000000" stroke="none" 
	d="
M567.848389,532.341125 
	C568.327820,532.113892 568.653015,532.270325 569.010376,532.712280 
	C568.593079,532.906738 568.143616,532.815796 567.848389,532.341125 
z"/>
<path fill="#E5E5E6" opacity="1.000000" stroke="none" 
	d="
M571.971069,536.454895 
	C572.354126,536.155029 572.722656,536.354309 573.310791,536.795410 
	C573.005798,537.009583 572.481140,536.981812 571.971069,536.454895 
z"/>
<path fill="#E5E5E6" opacity="1.000000" stroke="none" 
	d="
M570.838623,535.344849 
	C571.315796,535.119263 571.634949,535.281921 571.998779,535.723511 
	C571.589111,535.912720 571.134888,535.822937 570.838623,535.344849 
z"/>
<path fill="#E5E5E6" opacity="1.000000" stroke="none" 
	d="
M569.841919,534.342896 
	C570.319946,534.118652 570.638916,534.280090 571.000610,534.722473 
	C570.589905,534.911804 570.136414,534.820190 569.841919,534.342896 
z"/>
<path fill="#E5E5E6" opacity="1.000000" stroke="none" 
	d="
M564.860718,529.335999 
	C565.338013,529.109314 565.669250,529.260498 566.021301,529.703247 
	C565.599670,529.901245 565.157166,529.807556 564.860718,529.335999 
z"/>
<path fill="#E5E5E6" opacity="1.000000" stroke="none" 
	d="
M565.858337,530.336731 
	C566.332520,530.112061 566.659973,530.266418 567.015076,530.709656 
	C566.598999,530.904297 566.155334,530.809998 565.858337,530.336731 
z"/>
<path fill="#E5E5E6" opacity="1.000000" stroke="none" 
	d="
M566.854370,531.339783 
	C567.328186,531.112732 567.655029,531.268250 568.012207,531.710449 
	C567.597473,531.905579 567.152466,531.813965 566.854370,531.339783 
z"/>
<path fill="#E5E5E6" opacity="1.000000" stroke="none" 
	d="
M645.506409,611.392578 
	C645.889343,611.641846 645.921692,611.925049 645.951111,612.635742 
	C645.684021,612.517700 645.419922,611.972107 645.506409,611.392578 
z"/>
<path fill="#E5E5E6" opacity="1.000000" stroke="none" 
	d="
M646.012573,613.278198 
	C646.210083,613.215576 646.485779,613.407227 646.868774,613.831177 
	C646.680969,613.886475 646.385803,613.709473 646.012573,613.278198 
z"/>
<path fill="#6B41C2" opacity="1.000000" stroke="none" 
	d="
M719.028992,688.967529 
	C731.325867,701.399658 743.622742,713.831787 755.663696,726.597351 
	C735.963806,726.914795 716.519897,726.898865 697.039551,726.492249 
	C695.759644,722.557983 694.635437,718.966797 693.244812,715.481934 
	C691.064331,710.018005 686.541565,712.812012 682.890015,712.795532 
	C674.689758,712.758423 666.488525,712.920349 658.288330,712.882202 
	C653.824524,712.861450 649.003113,713.616760 644.983154,712.202515 
	C639.044006,710.113098 633.371216,709.316040 627.143127,709.905579 
	C616.281433,710.933716 605.365417,711.387695 594.472168,712.082336 
	C590.070496,707.601746 585.668823,703.121155 581.468689,698.180603 
	C588.266479,696.483154 594.882629,695.341736 601.453796,693.982910 
	C608.991638,692.424133 616.489624,690.672607 624.447998,689.005493 
	C632.612427,689.843079 640.356262,690.515381 648.048035,691.568420 
	C654.414001,692.439941 660.706238,694.589966 667.053101,694.683594 
	C676.041321,694.816284 685.080994,693.856079 694.040527,692.846741 
	C702.409485,691.903931 710.702515,690.287476 719.028992,688.967529 
z"/>
<path fill="#694BD3" opacity="1.000000" stroke="none" 
	d="
M718.884460,688.667786 
	C710.702515,690.287476 702.409485,691.903931 694.040527,692.846741 
	C685.080994,693.856079 676.041321,694.816284 667.053101,694.683594 
	C660.706238,694.589966 654.414001,692.439941 648.048035,691.568420 
	C640.356262,690.515381 632.612427,689.843079 624.378601,688.676208 
	C622.497253,686.984070 620.918457,685.773254 619.802795,684.228149 
	C617.407776,680.910950 615.251526,677.421448 612.997559,674.002441 
	C620.206787,671.206909 627.416016,668.411377 634.811401,665.309082 
	C647.462646,662.580139 659.950012,660.264954 672.379944,657.674011 
	C676.409607,656.834045 680.288574,655.271484 684.624817,654.030029 
	C696.255371,665.469727 707.497620,676.918884 718.884460,688.667786 
z"/>
<path fill="#6140B8" opacity="1.000000" stroke="none" 
	d="
M594.583740,712.425171 
	C605.365417,711.387695 616.281433,710.933716 627.143127,709.905579 
	C633.371216,709.316040 639.044006,710.113098 644.983154,712.202515 
	C649.003113,713.616760 653.824524,712.861450 658.288330,712.882202 
	C666.488525,712.920349 674.689758,712.758423 682.890015,712.795532 
	C686.541565,712.812012 691.064331,710.018005 693.244812,715.481934 
	C694.635437,718.966797 695.759644,722.557983 696.565674,726.552734 
	C693.143372,727.023743 690.158630,727.054138 687.173828,727.061523 
	C660.972900,727.126404 634.771973,727.187256 608.571045,727.249268 
	C603.945801,722.422119 599.320496,717.595032 594.583740,712.425171 
z"/>
<path fill="#5E4FCE" opacity="1.000000" stroke="none" 
	d="
M612.583496,674.018555 
	C615.251526,677.421448 617.407776,680.910950 619.802795,684.228149 
	C620.918457,685.773254 622.497253,686.984070 623.935486,688.675659 
	C616.489624,690.672607 608.991638,692.424133 601.453796,693.982910 
	C594.882629,695.341736 588.266479,696.483154 581.314819,697.885376 
	C574.332458,691.259399 567.705505,684.468689 560.905029,677.380371 
	C571.326233,676.396729 581.918945,675.677673 592.516418,675.037109 
	C599.063721,674.641235 605.618164,674.364685 612.583496,674.018555 
z"/>
<path fill="#838488" opacity="1.000000" stroke="none" 
	d="
M608.929321,727.521790 
	C634.771973,727.187256 660.972900,727.126404 687.173828,727.061523 
	C690.158630,727.054138 693.143372,727.023743 696.602051,726.943481 
	C716.519897,726.898865 735.963806,726.914795 755.896423,726.845215 
	C755.754150,727.169434 755.123230,727.937866 754.492371,727.937744 
	C706.090759,727.928711 657.689148,727.859192 608.929321,727.521790 
z"/>
<path fill="#728BFE" opacity="1.000000" stroke="none" 
	d="
M419.004883,483.004883 
	C421.518677,484.759674 424.197815,486.325165 426.493561,488.329712 
	C428.303406,489.909943 429.617859,492.050598 431.192566,493.908203 
	C438.311279,502.305786 445.450714,510.685730 452.568848,519.083740 
	C455.266815,522.266785 457.927521,525.481445 460.888550,528.891602 
	C452.343506,538.013184 443.515076,546.924866 434.222046,555.686157 
	C428.503754,551.690491 423.250031,547.845276 417.986572,543.623291 
	C414.983917,535.496887 411.991028,527.747192 409.153076,519.668579 
	C412.540344,507.228058 415.772614,495.116486 419.004883,483.004883 
z"/>
<path fill="#6384FD" opacity="1.000000" stroke="none" 
	d="
M417.996338,544.000000 
	C423.250031,547.845276 428.503754,551.690491 433.926605,555.845947 
	C432.550903,557.721802 431.006012,559.287476 428.884399,561.290161 
	C428.204010,563.543884 428.019073,565.360046 428.009644,567.177185 
	C427.935577,581.450806 427.895081,595.724609 427.493286,609.931091 
	C424.589264,608.554810 421.980530,607.342651 419.496094,605.914307 
	C415.619781,603.685730 411.827728,601.310608 408.000000,598.567505 
	C407.752289,596.184021 407.708984,594.178162 407.223663,592.285645 
	C404.203766,580.509644 401.084839,568.759033 398.308411,556.828369 
	C402.717773,553.778015 406.769714,550.827576 410.936462,548.049255 
	C413.188507,546.547668 415.636658,545.340210 417.996338,544.000000 
z"/>
<path fill="#2C74E9" opacity="1.000000" stroke="none" 
	d="
M515.978027,543.986328 
	C515.981140,548.141479 516.259338,552.325684 515.825684,556.434692 
	C515.689331,557.726929 513.682739,559.799133 512.462769,559.849915 
	C498.773987,560.420349 485.072449,560.706482 471.372589,560.980713 
	C464.470032,561.118958 457.563873,561.076965 450.232697,561.212891 
	C438.790192,550.394897 439.909790,553.940125 449.556915,543.999451 
	C450.125519,543.413513 450.705994,542.839172 451.962158,542.269409 
	C463.364868,542.852966 474.080383,543.644714 484.809509,543.937561 
	C495.191742,544.221008 505.587982,543.990906 515.978027,543.986328 
z"/>
<path fill="#296DDD" opacity="1.000000" stroke="none" 
	d="
M515.983154,543.520081 
	C505.587982,543.990906 495.191742,544.221008 484.809509,543.937561 
	C474.080383,543.644714 463.364868,542.852966 452.250366,542.109497 
	C457.676025,536.010315 463.494751,530.081238 469.614929,524.003906 
	C473.198090,524.320557 476.466278,524.982117 479.764343,525.207397 
	C485.825439,525.621460 491.905304,525.754333 497.975128,526.050171 
	C503.666595,526.327637 509.355133,526.664246 515.485962,526.961182 
	C515.947388,532.316284 515.967773,537.685059 515.983154,543.520081 
z"/>
<path fill="#838488" opacity="1.000000" stroke="none" 
	d="
M427.844269,609.998352 
	C427.895081,595.724609 427.935577,581.450806 428.009644,567.177185 
	C428.019073,565.360046 428.204010,563.543884 428.577759,561.430908 
	C428.866211,604.809387 428.888275,648.484253 428.886932,692.159058 
	C428.886871,693.637451 428.651459,695.115784 428.213684,696.917847 
	C427.904144,691.793274 427.906647,686.345032 427.899841,679.984131 
	C427.857697,676.378418 427.824921,673.685425 427.848694,670.663086 
	C427.876984,669.889954 427.848694,669.446350 427.879974,668.537354 
	C427.907806,648.714111 427.876038,629.356201 427.844269,609.998352 
z"/>
<path fill="#D2D2D4" opacity="1.000000" stroke="none" 
	d="
M538.080688,290.825256 
	C537.569702,290.693085 537.445740,290.556061 537.110535,290.239441 
	C540.702332,290.183746 544.505371,290.307648 548.632141,290.670319 
	C545.459778,290.879517 541.963745,290.849915 538.080688,290.825256 
z"/>
<path fill="#D2D2D4" opacity="1.000000" stroke="none" 
	d="
M562.951904,292.730469 
	C562.134399,292.740479 561.299377,292.553528 560.182617,292.197205 
	C560.643433,292.031158 561.386108,292.034454 562.493408,292.091553 
	C562.858032,292.145355 562.934387,292.533447 562.951904,292.730469 
z"/>
<path fill="#478BFD" opacity="1.000000" stroke="none" 
	d="
M400.001221,361.013428 
	C394.579041,363.307922 389.156830,365.602417 383.368317,367.951538 
	C370.882019,366.189758 358.979706,367.227844 346.987457,371.024963 
	C339.893829,364.434143 333.078125,357.549622 326.109558,350.371552 
	C330.404907,349.065826 334.809540,347.752472 339.309998,347.102112 
	C349.725861,345.597015 360.162109,343.735687 370.640533,343.333618 
	C377.769897,343.060059 384.984619,345.011932 392.627991,346.339630 
	C395.396912,351.478180 397.699066,356.245819 400.001221,361.013428 
z"/>
<path fill="#6B41C2" opacity="1.000000" stroke="none" 
	d="
M567.061890,515.352112 
	C567.673645,513.901123 568.332642,512.795105 568.999512,511.343262 
	C570.981323,512.150146 573.300476,512.953918 574.874084,514.511108 
	C586.296143,525.813904 597.567810,537.268616 609.085388,548.977783 
	C607.213074,550.561279 605.142456,551.842224 602.787720,553.251343 
	C594.192505,544.686218 585.848999,536.023621 577.585388,527.285400 
	C574.008362,523.502930 570.596252,519.564575 567.061890,515.352112 
z"/>
<path fill="#E5E5E6" opacity="1.000000" stroke="none" 
	d="
M480.787506,595.148804 
	C480.978577,595.070801 481.396088,595.201782 481.939941,595.653442 
	C481.715515,595.768738 481.364716,595.563232 480.787506,595.148804 
z"/>
<path fill="#E5E5E6" opacity="1.000000" stroke="none" 
	d="
M482.133453,596.162720 
	C482.326721,596.103943 482.628082,596.279053 483.002014,596.714966 
	C482.796875,596.782776 482.519196,596.589722 482.133453,596.162720 
z"/>
<path fill="#E5E5E6" opacity="1.000000" stroke="none" 
	d="
M483.133850,597.159912 
	C483.324463,597.103455 483.625488,597.280396 484.001770,597.717529 
	C483.799438,597.782959 483.521820,597.588135 483.133850,597.159912 
z"/>
<path fill="#E5E5E6" opacity="1.000000" stroke="none" 
	d="
M484.134918,598.157410 
	C484.321625,598.104126 484.622070,598.283508 485.002472,598.721863 
	C484.804504,598.783875 484.526581,598.586975 484.134918,598.157410 
z"/>
<path fill="#7D8CFE" opacity="1.000000" stroke="none" 
	d="
M434.006531,291.581818 
	C467.696777,291.113464 501.386688,291.077576 535.544678,291.090271 
	C536.030212,291.471344 536.004272,291.812836 536.071411,292.134949 
	C537.887695,300.849976 534.358093,305.572968 525.458435,307.096649 
	C522.847534,307.543671 520.222778,308.954956 518.064026,310.547363 
	C517.022705,311.315491 516.726257,313.515656 516.661255,315.090912 
	C516.549927,317.787201 516.885559,320.501984 516.594360,323.605103 
	C505.766937,324.996887 495.378754,325.992493 484.694977,326.826630 
	C483.322571,325.230072 482.426605,323.601135 481.135223,322.395935 
	C477.142334,318.669617 473.541168,313.295502 468.795166,311.872772 
	C460.248047,309.310577 450.980011,309.153320 442.013123,307.991455 
	C441.513245,307.348541 441.148895,306.444458 440.492218,306.103607 
	C434.647552,303.069977 433.295135,298.031158 434.006531,291.581818 
z"/>
<path fill="#7679FE" opacity="1.000000" stroke="none" 
	d="
M484.990540,326.988098 
	C495.378754,325.992493 505.766937,324.996887 516.580627,323.998413 
	C520.815735,325.879303 524.648926,327.717316 528.424377,329.667175 
	C530.148804,330.557770 531.759399,331.668945 533.725769,332.849060 
	C530.793091,338.486847 527.556274,343.955597 524.157654,349.727631 
	C516.383728,348.782684 508.767212,347.560547 501.161194,346.275848 
	C497.028564,345.577820 492.913940,344.773376 488.236511,343.716949 
	C485.451385,340.277191 483.220947,337.137451 481.041687,333.656647 
	C482.392090,331.206421 483.691345,329.097260 484.990540,326.988098 
z"/>
<path fill="#518BFD" opacity="1.000000" stroke="none" 
	d="
M400.380371,361.022888 
	C397.699066,356.245819 395.396912,351.478180 393.045044,346.357269 
	C395.791077,343.764435 398.586914,341.524933 401.692566,339.139374 
	C409.949615,340.263947 417.895142,341.545044 425.844879,342.799408 
	C428.596954,343.233673 431.359497,343.601685 434.715363,344.294434 
	C437.872803,347.392609 440.432129,350.196320 442.994629,353.416962 
	C443.328217,356.888885 443.658600,359.943848 443.989014,362.998810 
	C441.135986,364.496124 438.282990,365.993469 435.213165,367.749268 
	C430.304840,368.005676 425.613342,368.003632 420.454224,368.006226 
	C413.577545,365.684662 407.168549,363.358521 400.380371,361.022888 
z"/>
<path fill="#728BFE" opacity="1.000000" stroke="none" 
	d="
M484.695007,326.826660 
	C483.691345,329.097260 482.392090,331.206421 480.622131,333.657196 
	C476.244324,333.955444 472.314209,334.167145 468.434784,333.817169 
	C459.610718,333.020996 450.811493,331.948944 442.002197,330.989014 
	C440.672943,325.283569 435.457428,323.496063 431.219543,320.249329 
	C434.565918,316.188690 438.126984,312.385284 441.850586,308.286652 
	C450.980011,309.153320 460.248047,309.310577 468.795166,311.872772 
	C473.541168,313.295502 477.142334,318.669617 481.135223,322.395935 
	C482.426605,323.601135 483.322571,325.230072 484.695007,326.826660 
z"/>
<path fill="#6384FD" opacity="1.000000" stroke="none" 
	d="
M441.953369,331.341187 
	C450.811493,331.948944 459.610718,333.020996 468.434784,333.817169 
	C472.314209,334.167145 476.244324,333.955444 480.570984,333.998260 
	C483.220947,337.137451 485.451385,340.277191 487.844757,343.716553 
	C486.701935,347.112671 485.396179,350.209167 483.578827,353.656616 
	C475.552734,353.779083 468.038879,353.523926 460.523468,353.330658 
	C454.680481,353.180420 448.835541,353.107361 442.991455,353.000000 
	C440.432129,350.196320 437.872803,347.392609 435.151367,344.293030 
	C437.294312,339.895874 439.599396,335.794586 441.953369,331.341187 
z"/>
<path fill="#E5E5E6" opacity="1.000000" stroke="none" 
	d="
M545.172424,510.285431 
	C548.135132,512.402832 551.106079,514.859863 554.053955,517.664062 
	C551.080872,515.549133 548.130737,513.087097 545.172424,510.285431 
z"/>
<path fill="#E5E5E6" opacity="1.000000" stroke="none" 
	d="
M555.872559,520.334534 
	C556.339844,520.108765 556.696106,520.249023 557.041870,520.703064 
	C556.608154,520.911438 556.184814,520.805969 555.872559,520.334534 
z"/>
<path fill="#E5E5E6" opacity="1.000000" stroke="none" 
	d="
M554.878174,519.332581 
	C555.343323,519.106873 555.701355,519.245239 556.045410,519.700073 
	C555.611267,519.909851 555.191101,519.803284 554.878174,519.332581 
z"/>
<path fill="#E5E5E6" opacity="1.000000" stroke="none" 
	d="
M553.881470,518.331116 
	C554.346497,518.104980 554.708984,518.241333 555.051514,518.696167 
	C554.614014,518.907593 554.196472,518.800598 553.881470,518.331116 
z"/>
<path fill="#E5E5E6" opacity="1.000000" stroke="none" 
	d="
M561.845825,526.346924 
	C562.328430,526.115051 562.671875,526.262817 563.024048,526.712524 
	C562.590637,526.918457 562.148682,526.822449 561.845825,526.346924 
z"/>
<path fill="#E5E5E6" opacity="1.000000" stroke="none" 
	d="
M560.849182,525.345154 
	C561.330933,525.114136 561.674988,525.260925 562.025757,525.711365 
	C561.592224,525.917664 561.151794,525.820251 560.849182,525.345154 
z"/>
<path fill="#E5E5E6" opacity="1.000000" stroke="none" 
	d="
M559.851929,524.343994 
	C560.336365,524.111816 560.683289,524.256042 561.031372,524.706665 
	C560.593140,524.915466 560.153748,524.817871 559.851929,524.343994 
z"/>
<path fill="#E5E5E6" opacity="1.000000" stroke="none" 
	d="
M556.870300,521.337830 
	C557.337769,521.109131 557.692505,521.249756 558.039551,521.702393 
	C557.607117,521.911987 557.182312,521.809570 556.870300,521.337830 
z"/>
<path fill="#E5E5E6" opacity="1.000000" stroke="none" 
	d="
M558.859497,523.343445 
	C559.337585,523.109680 559.688538,523.251526 560.035889,523.701904 
	C559.598999,523.913330 559.165649,523.816223 558.859497,523.343445 
z"/>
<path fill="#E5E5E6" opacity="1.000000" stroke="none" 
	d="
M557.863647,522.339966 
	C558.338135,522.109619 558.690796,522.251160 559.037842,522.702881 
	C558.602051,522.912720 558.171936,522.812317 557.863647,522.339966 
z"/>
<path fill="#6E94FD" opacity="1.000000" stroke="none" 
	d="
M419.003357,482.584717 
	C415.772614,495.116486 412.540344,507.228058 408.795502,519.618896 
	C402.316620,516.985474 395.743103,515.061462 391.611755,509.211304 
	C390.918518,508.229584 389.557526,507.614746 388.388000,507.092529 
	C383.780396,505.034851 378.034851,505.042572 375.474731,499.296448 
	C375.067261,498.381866 372.545502,498.409302 370.988647,497.618439 
	C369.424988,493.809692 368.516357,489.825775 366.153442,487.104797 
	C363.450012,483.991608 362.726959,480.889740 362.994934,477.154449 
	C381.351471,477.119415 399.708038,477.084381 418.530701,477.100830 
	C418.998474,478.823029 419.000122,480.493805 419.003357,482.584717 
z"/>
<path fill="#587CFD" opacity="1.000000" stroke="none" 
	d="
M442.994629,353.416962 
	C448.835541,353.107361 454.680481,353.180420 460.523468,353.330658 
	C468.038879,353.523926 475.552734,353.779083 483.525696,354.012146 
	C485.358032,356.550873 486.434479,359.317169 488.183594,361.558502 
	C490.222961,364.171783 490.563080,366.307007 488.520203,369.049835 
	C486.566803,371.672485 485.010162,374.590637 483.128815,377.689453 
	C479.611359,376.827362 476.204834,375.755859 472.884552,374.462891 
	C463.455444,370.791016 454.061554,367.028656 444.321411,363.150391 
	C443.658600,359.943848 443.328217,356.888885 442.994629,353.416962 
z"/>
<path fill="#296DDD" opacity="1.000000" stroke="none" 
	d="
M318.497620,740.907227 
	C318.120789,738.592041 318.088837,736.229309 318.483765,733.426636 
	C321.452179,731.901245 324.111908,731.028870 326.516022,729.695496 
	C340.916779,721.708313 355.280029,713.652405 369.578796,705.484558 
	C370.687317,704.851379 371.204834,703.183594 372.383759,701.978027 
	C384.042572,697.282410 395.300751,692.571533 406.592560,687.942566 
	C412.351135,685.581970 418.170105,683.368774 423.961761,681.088867 
	C420.307526,683.503784 416.755188,686.092529 412.981995,688.304504 
	C393.114716,699.951355 373.300720,711.696411 353.245270,723.012085 
	C342.000641,729.356506 330.324341,734.935730 318.497620,740.907227 
z"/>
<path fill="#4E70FD" opacity="1.000000" stroke="none" 
	d="
M424.197815,680.831238 
	C418.170105,683.368774 412.351135,685.581970 406.592560,687.942566 
	C395.300751,692.571533 384.042572,697.282410 372.161682,701.735352 
	C370.706299,701.322937 369.859711,701.134583 369.070801,700.597900 
	C370.119385,699.228210 370.945465,697.923157 372.129974,697.235291 
	C377.031769,694.388550 382.042053,691.728516 387.370056,688.949829 
	C396.045624,684.895325 404.304413,680.760864 412.704315,676.936340 
	C417.617218,674.699463 422.755341,672.957275 427.792114,670.992493 
	C427.824921,673.685425 427.857697,676.378418 427.844727,679.517212 
	C426.677277,680.166504 425.555603,680.370056 424.197815,680.831238 
z"/>
<path fill="#5594FD" opacity="1.000000" stroke="none" 
	d="
M318.148346,562.000854 
	C318.116516,545.314270 318.084717,528.627747 318.465668,511.536560 
	C320.910095,511.732666 323.032349,513.046936 324.956757,512.802612 
	C331.163391,512.014648 336.669128,510.750610 342.143829,516.397095 
	C346.822144,521.222168 353.510956,524.113647 359.371948,527.761658 
	C360.427490,528.418640 361.781403,528.596252 362.998535,529.395142 
	C364.333832,532.864197 365.668152,535.933350 366.998901,539.413696 
	C365.996460,546.884155 364.997620,553.943298 363.620819,561.058838 
	C357.552368,563.240662 351.965210,561.928284 346.224762,561.056763 
	C340.632202,560.207764 334.869537,560.164429 329.193420,560.292603 
	C325.500763,560.375977 321.829315,561.398804 318.148346,562.000854 
z"/>
<path fill="#609CFD" opacity="1.000000" stroke="none" 
	d="
M362.997559,528.995117 
	C361.781403,528.596252 360.427490,528.418640 359.371948,527.761658 
	C353.510956,524.113647 346.822144,521.222168 342.143829,516.397095 
	C336.669128,510.750610 331.163391,512.014648 324.956757,512.802612 
	C323.032349,513.046936 320.910095,511.732666 318.515747,511.070984 
	C318.103333,499.989960 318.053589,488.969940 318.009521,477.482544 
	C332.697845,477.027039 347.380432,477.038879 362.528992,477.102600 
	C362.726959,480.889740 363.450012,483.991608 366.153442,487.104797 
	C368.516357,489.825775 369.424988,493.809692 370.974915,498.009033 
	C368.315033,508.853302 365.656311,518.924194 362.997559,528.995117 
z"/>
<path fill="#337EFD" opacity="1.000000" stroke="none" 
	d="
M318.148285,724.979858 
	C318.116486,705.299561 318.084686,685.619263 318.498260,665.470520 
	C320.351776,664.410583 321.747528,663.786865 323.172333,663.238708 
	C324.165161,662.856689 325.357849,662.073792 326.186768,662.336426 
	C331.277771,663.949219 336.285034,665.824890 341.332794,667.576599 
	C342.868347,668.109497 344.443970,668.527161 346.048767,669.348511 
	C354.573395,678.955383 356.108795,692.625122 365.677094,701.139648 
	C358.942291,704.626587 352.561768,708.043213 346.090210,711.277466 
	C336.811096,715.914734 327.465485,720.418884 318.148285,724.979858 
z"/>
<path fill="#478BFD" opacity="1.000000" stroke="none" 
	d="
M318.157776,618.005798 
	C318.123413,603.316406 318.089050,588.627075 318.514404,573.469543 
	C332.439697,569.697144 339.761139,577.671631 346.491089,587.485901 
	C351.595917,594.930298 357.468872,601.847961 363.000000,609.444458 
	C363.000000,617.925110 363.000000,625.961304 362.598480,633.997925 
	C360.130615,633.666382 358.064270,633.334412 355.782623,632.746094 
	C352.378906,630.160767 349.307770,627.645081 345.972717,625.549438 
	C341.713348,622.873047 337.495392,619.602417 332.787689,618.319031 
	C328.221893,617.074341 323.058655,618.021362 318.157776,618.005798 
z"/>
<path fill="#518BFD" opacity="1.000000" stroke="none" 
	d="
M363.000000,609.000000 
	C357.468872,601.847961 351.595917,594.930298 346.491089,587.485901 
	C339.761139,577.671631 332.439697,569.697144 318.565613,573.003845 
	C318.118866,569.641663 318.080719,566.276978 318.095459,562.456604 
	C321.829315,561.398804 325.500763,560.375977 329.193420,560.292603 
	C334.869537,560.164429 340.632202,560.207764 346.224762,561.056763 
	C351.965210,561.928284 357.552368,563.240662 363.676239,561.428955 
	C365.537659,564.223572 367.921082,566.600891 368.203217,569.205811 
	C368.877563,575.431702 373.465088,579.127014 376.256195,583.974426 
	C379.064148,588.851074 381.434998,593.979492 383.707245,599.168884 
	C382.326782,603.407532 378.226471,601.960632 375.687622,603.415955 
	C371.701233,605.700928 367.252777,607.179749 363.000000,609.000000 
z"/>
<path fill="#3D86FD" opacity="1.000000" stroke="none" 
	d="
M318.104156,618.471497 
	C323.058655,618.021362 328.221893,617.074341 332.787689,618.319031 
	C337.495392,619.602417 341.713348,622.873047 345.972717,625.549438 
	C349.307770,627.645081 352.378906,630.160767 355.724243,633.131592 
	C355.238617,636.514954 354.710602,639.289368 353.932556,641.991882 
	C351.337067,651.007690 348.651978,659.997681 346.001221,668.997559 
	C344.443970,668.527161 342.868347,668.109497 341.332794,667.576599 
	C336.285034,665.824890 331.277771,663.949219 326.186768,662.336426 
	C325.357849,662.073792 324.165161,662.856689 323.172333,663.238708 
	C321.747528,663.786865 320.351776,664.410583 318.550751,665.005066 
	C318.122070,649.651123 318.086304,634.294128 318.104156,618.471497 
z"/>
<path fill="#2C74E9" opacity="1.000000" stroke="none" 
	d="
M318.092163,725.422607 
	C327.465485,720.418884 336.811096,715.914734 346.090210,711.277466 
	C352.561768,708.043213 358.942291,704.626587 366.054993,701.143311 
	C367.502045,700.978882 368.257568,700.962585 369.013123,700.946289 
	C369.859711,701.134583 370.706299,701.322937 371.774963,701.753906 
	C371.204834,703.183594 370.687317,704.851379 369.578796,705.484558 
	C355.280029,713.652405 340.916779,721.708313 326.516022,729.695496 
	C324.111908,731.028870 321.452179,731.901245 318.537689,732.985474 
	C318.121887,730.611267 318.078949,728.238281 318.092163,725.422607 
z"/>
<path fill="#658FFD" opacity="1.000000" stroke="none" 
	d="
M362.998535,529.395142 
	C365.656311,518.924194 368.315033,508.853302 370.987488,498.391785 
	C372.545502,498.409302 375.067261,498.381866 375.474731,499.296448 
	C378.034851,505.042572 383.780396,505.034851 388.388000,507.092529 
	C389.557526,507.614746 390.918518,508.229584 391.611755,509.211304 
	C395.743103,515.061462 402.316620,516.985474 408.640503,519.947876 
	C411.991028,527.747192 414.983917,535.496887 417.986572,543.623291 
	C415.636658,545.340210 413.188507,546.547668 410.936462,548.049255 
	C406.769714,550.827576 402.717773,553.778015 397.937103,556.817627 
	C392.321594,553.891724 387.440399,550.714966 382.437439,547.743286 
	C377.354980,544.724365 372.152405,541.907715 367.002441,539.002441 
	C365.668152,535.933350 364.333832,532.864197 362.998535,529.395142 
z"/>
<path fill="#5B89FD" opacity="1.000000" stroke="none" 
	d="
M366.998901,539.413696 
	C372.152405,541.907715 377.354980,544.724365 382.437439,547.743286 
	C387.440399,550.714966 392.321594,553.891724 397.627502,556.989258 
	C401.084839,568.759033 404.203766,580.509644 407.223663,592.285645 
	C407.708984,594.178162 407.752289,596.184021 407.694397,598.735229 
	C405.680054,600.332642 404.057648,601.545471 402.242035,602.281921 
	C399.567352,603.366882 396.754944,604.112366 393.627045,604.999146 
	C391.926514,604.291992 390.535095,603.686340 389.289246,602.860962 
	C387.470459,601.655945 385.756195,600.293152 383.997406,598.997559 
	C381.434998,593.979492 379.064148,588.851074 376.256195,583.974426 
	C373.465088,579.127014 368.877563,575.431702 368.203217,569.205811 
	C367.921082,566.600891 365.537659,564.223572 364.054199,561.372559 
	C364.997620,553.943298 365.996460,546.884155 366.998901,539.413696 
z"/>
<path fill="#587CFD" opacity="1.000000" stroke="none" 
	d="
M394.001221,605.002441 
	C396.754944,604.112366 399.567352,603.366882 402.242035,602.281921 
	C404.057648,601.545471 405.680054,600.332642 407.694427,599.165222 
	C411.827728,601.310608 415.619781,603.685730 419.496094,605.914307 
	C421.980530,607.342651 424.589264,608.554810 427.493286,609.931091 
	C427.876038,629.356201 427.907806,648.714111 427.460815,668.536499 
	C421.157715,668.992676 412.635895,662.987610 410.333160,657.697266 
	C409.285736,655.290894 407.466644,653.220398 405.995911,650.591797 
	C404.888062,645.892273 403.812469,641.590210 402.669739,637.306152 
	C399.796387,626.533936 396.892731,615.769836 394.001221,605.002441 
z"/>
<path fill="#4A79FD" opacity="1.000000" stroke="none" 
	d="
M405.997559,650.997559 
	C407.466644,653.220398 409.285736,655.290894 410.333160,657.697266 
	C412.635895,662.987610 421.157715,668.992676 427.401215,669.001892 
	C427.848694,669.446350 427.876984,669.889954 427.848694,670.663086 
	C422.755341,672.957275 417.617218,674.699463 412.704315,676.936340 
	C404.304413,680.760864 396.045624,684.895325 387.215881,688.617065 
	C385.109222,684.162354 383.231873,680.073242 381.976257,675.801392 
	C379.076813,665.937134 373.627808,656.741272 374.395874,646.063354 
	C385.200012,647.694458 395.085632,652.632324 405.997559,650.997559 
z"/>
<path fill="#407EFD" opacity="1.000000" stroke="none" 
	d="
M374.003265,646.002441 
	C373.627808,656.741272 379.076813,665.937134 381.976257,675.801392 
	C383.231873,680.073242 385.109222,684.162354 386.858337,688.667236 
	C382.042053,691.728516 377.031769,694.388550 372.129974,697.235291 
	C370.945465,697.923157 370.119385,699.228210 369.070801,700.597900 
	C368.257568,700.962585 367.502045,700.978882 366.368591,700.991455 
	C356.108795,692.625122 354.573395,678.955383 346.048767,669.348511 
	C348.651978,659.997681 351.337067,651.007690 353.932556,641.991882 
	C354.710602,639.289368 355.238617,636.514954 355.939545,633.387939 
	C358.064270,633.334412 360.130615,633.666382 362.852600,634.209106 
	C367.006561,638.280701 370.504913,642.141602 374.003265,646.002441 
z"/>
<path fill="#4F81FD" opacity="1.000000" stroke="none" 
	d="
M374.395874,646.063354 
	C370.504913,642.141602 367.006561,638.280701 363.254089,634.208740 
	C363.000000,625.961304 363.000000,617.925110 363.000000,609.444458 
	C367.252777,607.179749 371.701233,605.700928 375.687622,603.415955 
	C378.226471,601.960632 382.326782,603.407532 383.707245,599.168884 
	C385.756195,600.293152 387.470459,601.655945 389.289246,602.860962 
	C390.535095,603.686340 391.926514,604.291992 393.627075,604.999146 
	C396.892731,615.769836 399.796387,626.533936 402.669739,637.306152 
	C403.812469,641.590210 404.888062,645.892273 405.995911,650.591797 
	C395.085632,652.632324 385.200012,647.694458 374.395874,646.063354 
z"/>
</svg>